<svg width="93" height="94" viewBox="0 0 93 94" fill="none" xmlns="http://www.w3.org/2000/svg">
<g id="Call Icon">
<circle id="Ellipse" cx="46.5" cy="46.8198" r="46.5" fill="#F4F0EC"/>
<path id="Call" d="M61.0012 55.3948C59.7796 54.1641 56.8211 52.368 55.3857 51.6442C53.5164 50.7027 53.3625 50.6257 51.8933 51.7172C50.9133 52.4457 50.2617 53.0964 49.1148 52.8518C47.9678 52.6072 45.4754 51.228 43.2931 49.0527C41.1107 46.8774 39.6514 44.3129 39.4061 43.1699C39.1607 42.0269 39.8222 41.3831 40.5438 40.4008C41.5607 39.0162 41.4838 38.7855 40.6145 36.9163C39.9368 35.4626 38.0883 32.5319 36.8529 31.3166C35.5313 30.0112 35.5313 30.242 34.6798 30.5958C33.9865 30.8875 33.3214 31.242 32.6928 31.655C31.462 32.4727 30.7789 33.1519 30.3012 34.1726C29.8235 35.1933 29.6089 37.5863 32.0759 42.0677C34.5429 46.549 36.2737 48.8404 39.8561 52.4126C43.4385 55.9847 46.1931 57.9054 50.2202 60.1638C55.2018 62.9537 57.1126 62.4099 58.1365 61.9329C59.1604 61.456 59.8427 60.7792 60.662 59.5484C61.076 58.9209 61.4314 58.2566 61.7235 57.5639C62.0781 56.7155 62.3089 56.7155 61.0012 55.3948Z" stroke="#406636" stroke-width="2" stroke-miterlimit="10"/>
</g>
</svg>
