<svg width="32" height="32" viewBox="0 0 32 32" fill="none" xmlns="http://www.w3.org/2000/svg">
<g clip-path="url(#clip0_1527_865)">
<path fill-rule="evenodd" clip-rule="evenodd" d="M15.9998 2.66675C23.3636 2.66675 29.3332 8.63628 29.3332 16.0001C29.3332 19.2022 28.2044 22.1407 26.323 24.4393L26.3488 24.4695L26.1737 24.6185C23.728 27.5027 20.0777 29.3334 15.9998 29.3334C12.0676 29.3334 8.533 27.6312 6.09259 24.9234L5.82597 24.6185L5.65084 24.4695L5.67668 24.4393C3.7953 22.1407 2.6665 19.2022 2.6665 16.0001C2.6665 8.63628 8.63604 2.66675 15.9998 2.66675ZM15.9998 22.6667C13.5202 22.6667 11.2784 23.4562 9.60858 24.5407C11.3898 25.8758 13.6025 26.6667 15.9998 26.6667C18.3972 26.6667 20.6098 25.8758 22.391 24.5407C20.7213 23.4562 18.4794 22.6667 15.9998 22.6667ZM15.9998 5.33341C10.1088 5.33341 5.33317 10.109 5.33317 16.0001C5.33317 18.513 6.20214 20.823 7.65598 22.6458C9.81721 21.0949 12.7664 20.0001 15.9998 20.0001C19.2333 20.0001 22.1825 21.0949 24.3437 22.6458C25.7976 20.823 26.6665 18.513 26.6665 16.0001C26.6665 10.109 21.8909 5.33341 15.9998 5.33341ZM15.9998 8.00008C18.9453 8.00008 21.3332 10.3879 21.3332 13.3334C21.3332 16.2789 18.9453 18.6667 15.9998 18.6667C13.0543 18.6667 10.6665 16.2789 10.6665 13.3334C10.6665 10.3879 13.0543 8.00008 15.9998 8.00008ZM15.9998 10.6667C14.527 10.6667 13.3332 11.8607 13.3332 13.3334C13.3332 14.8062 14.527 16.0001 15.9998 16.0001C17.4726 16.0001 18.6665 14.8062 18.6665 13.3334C18.6665 11.8607 17.4726 10.6667 15.9998 10.6667Z" fill="#434343" stroke="white" stroke-width="1.2" stroke-linecap="round" stroke-linejoin="round"/>
</g>
<defs>
<clipPath id="clip0_1527_865">
<rect width="32" height="32" fill="white"/>
</clipPath>
</defs>
</svg>
