<svg width="254" height="50" viewBox="0 0 254 50" fill="none" xmlns="http://www.w3.org/2000/svg">
<path d="M62.9921 39V38.6L63.8321 38.28C64.6854 37.9333 65.1121 37.2533 65.1121 36.24V15.36C65.1121 14.2933 64.6854 13.6133 63.8321 13.32L62.9921 13V12.6H73.5521C76.3787 12.6 78.8054 13.1333 80.8321 14.2C82.8854 15.24 84.4587 16.7467 85.5521 18.72C86.6721 20.6667 87.2321 23.0133 87.2321 25.76C87.2321 28.56 86.6321 30.9467 85.4321 32.92C84.2321 34.8933 82.5521 36.4 80.3921 37.44C78.2587 38.48 75.7387 39 72.8321 39H62.9921ZM71.1121 38.2H72.8321C74.7521 38.2 76.2987 37.8267 77.4721 37.08C78.6454 36.3067 79.4987 35.0267 80.0321 33.24C80.5921 31.4267 80.8721 28.9467 80.8721 25.8C80.8721 22.6533 80.5921 20.1867 80.0321 18.4C79.4987 16.5867 78.6587 15.3067 77.5121 14.56C76.3654 13.7867 74.8587 13.4 72.9921 13.4H71.1121V38.2ZM98.8896 19.16C100.623 19.16 102.103 19.52 103.33 20.24C104.556 20.9333 105.49 21.8933 106.13 23.12C106.796 24.32 107.13 25.6933 107.13 27.24C107.13 27.5333 107.116 27.84 107.09 28.16C107.063 28.4533 107.01 28.72 106.93 28.96H95.0096C95.0362 31.84 95.5429 33.92 96.5296 35.2C97.5429 36.4533 99.0362 37.08 101.01 37.08C102.343 37.08 103.423 36.8667 104.25 36.44C105.076 36.0133 105.85 35.3867 106.57 34.56L106.97 34.92C106.143 36.3867 105.036 37.5333 103.65 38.36C102.29 39.1867 100.65 39.6 98.7296 39.6C96.8362 39.6 95.1562 39.2 93.6896 38.4C92.2229 37.5733 91.0762 36.4 90.2496 34.88C89.4229 33.36 89.0096 31.5467 89.0096 29.44C89.0096 27.2533 89.4896 25.4 90.4496 23.88C91.4096 22.3333 92.6362 21.16 94.1296 20.36C95.6496 19.56 97.2362 19.16 98.8896 19.16ZM98.7696 19.96C97.9962 19.96 97.3296 20.2 96.7696 20.68C96.2362 21.1333 95.8096 21.96 95.4896 23.16C95.1962 24.3333 95.0362 26 95.0096 28.16H101.85C102.116 25.2533 102.01 23.16 101.53 21.88C101.05 20.6 100.13 19.96 98.7696 19.96ZM119.043 39.6C117.23 39.6 115.576 39.2133 114.083 38.44C112.616 37.64 111.443 36.4933 110.563 35C109.71 33.48 109.283 31.6267 109.283 29.44C109.283 27.28 109.75 25.44 110.683 23.92C111.643 22.3733 112.91 21.2 114.483 20.4C116.083 19.5733 117.83 19.16 119.723 19.16C121.27 19.16 122.576 19.4133 123.643 19.92C124.71 20.4267 125.523 21.0933 126.083 21.92C126.643 22.72 126.923 23.56 126.923 24.44C126.923 25.1867 126.696 25.7733 126.243 26.2C125.79 26.6 125.203 26.8 124.483 26.8C123.71 26.8 123.083 26.52 122.603 25.96C122.123 25.4 121.843 24.6667 121.763 23.76C121.736 23.1733 121.75 22.68 121.803 22.28C121.856 21.8533 121.856 21.4267 121.803 21C121.696 20.5467 121.523 20.2533 121.283 20.12C121.07 19.96 120.763 19.88 120.363 19.88C118.736 19.88 117.47 20.5867 116.563 22C115.683 23.4133 115.243 25.6667 115.243 28.76C115.243 31.4533 115.736 33.52 116.723 34.96C117.736 36.3733 119.283 37.08 121.363 37.08C122.616 37.08 123.63 36.8533 124.403 36.4C125.176 35.9467 125.923 35.2667 126.643 34.36L127.043 34.68C126.376 36.2533 125.35 37.4667 123.963 38.32C122.576 39.1733 120.936 39.6 119.043 39.6ZM138.774 39.6C136.748 39.6 134.988 39.1867 133.494 38.36C132.001 37.5067 130.841 36.3067 130.014 34.76C129.214 33.2133 128.814 31.4 128.814 29.32C128.814 27.24 129.241 25.44 130.094 23.92C130.974 22.4 132.161 21.2267 133.654 20.4C135.174 19.5733 136.881 19.16 138.774 19.16C140.668 19.16 142.361 19.5733 143.854 20.4C145.348 21.2 146.521 22.36 147.374 23.88C148.254 25.4 148.694 27.2133 148.694 29.32C148.694 31.4267 148.281 33.2533 147.454 34.8C146.654 36.32 145.508 37.5067 144.014 38.36C142.548 39.1867 140.801 39.6 138.774 39.6ZM138.774 38.8C139.708 38.8 140.454 38.5333 141.014 38C141.574 37.4667 141.974 36.52 142.214 35.16C142.481 33.8 142.614 31.88 142.614 29.4C142.614 26.8933 142.481 24.96 142.214 23.6C141.974 22.24 141.574 21.2933 141.014 20.76C140.454 20.2267 139.708 19.96 138.774 19.96C137.841 19.96 137.081 20.2267 136.494 20.76C135.934 21.2933 135.521 22.24 135.254 23.6C135.014 24.96 134.894 26.8933 134.894 29.4C134.894 31.88 135.014 33.8 135.254 35.16C135.521 36.52 135.934 37.4667 136.494 38C137.081 38.5333 137.841 38.8 138.774 38.8ZM150.451 39V38.6L151.051 38.44C151.584 38.28 151.944 38.04 152.131 37.72C152.344 37.4 152.451 36.9867 152.451 36.48V23.96C152.451 23.3733 152.344 22.9467 152.131 22.68C151.944 22.3867 151.584 22.1867 151.051 22.08L150.451 21.92V21.52L157.331 19.2L157.731 19.6L158.091 23.04V23.36C158.464 22.6133 158.944 21.9333 159.531 21.32C160.144 20.68 160.811 20.16 161.531 19.76C162.278 19.36 163.011 19.16 163.731 19.16C164.744 19.16 165.518 19.44 166.051 20C166.584 20.56 166.851 21.2667 166.851 22.12C166.851 23.0267 166.584 23.7333 166.051 24.24C165.544 24.72 164.931 24.96 164.211 24.96C163.091 24.96 162.104 24.4 161.251 23.28L161.171 23.2C160.904 22.8267 160.598 22.6267 160.251 22.6C159.904 22.5467 159.584 22.7067 159.291 23.08C159.024 23.32 158.798 23.6133 158.611 23.96C158.451 24.28 158.291 24.6533 158.131 25.08V36.24C158.131 37.3067 158.598 37.9733 159.531 38.24L160.811 38.6V39H150.451ZM173.088 39.6C171.541 39.6 170.235 39.16 169.168 38.28C168.128 37.4 167.608 36.1333 167.608 34.48C167.608 33.2267 168.248 32.08 169.528 31.04C170.808 29.9733 172.821 29.1733 175.568 28.64C175.995 28.56 176.475 28.48 177.008 28.4C177.541 28.2933 178.101 28.1867 178.688 28.08V24.92C178.688 23.1067 178.461 21.84 178.008 21.12C177.581 20.3733 176.901 20 175.968 20C175.328 20 174.821 20.2133 174.448 20.64C174.075 21.04 173.835 21.7467 173.728 22.76L173.648 23.2C173.595 24.3467 173.315 25.1867 172.808 25.72C172.301 26.2533 171.675 26.52 170.928 26.52C170.235 26.52 169.661 26.3067 169.208 25.88C168.755 25.4533 168.528 24.88 168.528 24.16C168.528 23.0667 168.901 22.1467 169.648 21.4C170.421 20.6533 171.435 20.0933 172.688 19.72C173.941 19.3467 175.301 19.16 176.768 19.16C179.141 19.16 180.968 19.7467 182.248 20.92C183.555 22.0667 184.208 23.9467 184.208 26.56V35.4C184.208 36.6 184.768 37.2 185.888 37.2H186.768L187.128 37.52C186.621 38.16 186.061 38.6533 185.448 39C184.861 39.3467 184.021 39.52 182.928 39.52C181.755 39.52 180.821 39.2533 180.128 38.72C179.461 38.16 179.021 37.4267 178.808 36.52C178.008 37.3733 177.181 38.1067 176.328 38.72C175.501 39.3067 174.421 39.6 173.088 39.6ZM175.528 37.16C176.061 37.16 176.555 37.04 177.008 36.8C177.488 36.5333 178.048 36.1333 178.688 35.6V28.88C178.421 28.9333 178.155 28.9867 177.888 29.04C177.621 29.0933 177.315 29.1467 176.968 29.2C175.741 29.52 174.755 30.0667 174.008 30.84C173.288 31.5867 172.928 32.6 172.928 33.88C172.928 34.9733 173.181 35.8 173.688 36.36C174.195 36.8933 174.808 37.16 175.528 37.16ZM195.551 39.6C193.844 39.6 192.511 39.1733 191.551 38.32C190.618 37.4667 190.151 36.1067 190.151 34.24V20.56H187.391V20.16L188.351 20C189.178 19.8133 189.884 19.5467 190.471 19.2C191.084 18.8533 191.684 18.3867 192.271 17.8L195.551 14.16H195.951L195.831 19.76H200.311V20.56H195.791V34.96C195.791 35.8933 195.991 36.6 196.391 37.08C196.818 37.56 197.351 37.8 197.991 37.8C198.551 37.8 199.044 37.6667 199.471 37.4C199.898 37.1067 200.324 36.72 200.751 36.24L201.151 36.64C200.618 37.5467 199.884 38.2667 198.951 38.8C198.018 39.3333 196.884 39.6 195.551 39.6ZM207.204 17.08C206.298 17.08 205.524 16.8 204.884 16.24C204.271 15.6533 203.964 14.92 203.964 14.04C203.964 13.1333 204.271 12.4 204.884 11.84C205.524 11.28 206.298 11 207.204 11C208.111 11 208.871 11.28 209.484 11.84C210.098 12.4 210.404 13.1333 210.404 14.04C210.404 14.92 210.098 15.6533 209.484 16.24C208.871 16.8 208.111 17.08 207.204 17.08ZM202.484 39V38.6L203.044 38.44C203.578 38.28 203.938 38.04 204.124 37.72C204.338 37.4 204.444 36.9733 204.444 36.44V23.92C204.444 23.36 204.338 22.9467 204.124 22.68C203.938 22.3867 203.578 22.1867 203.044 22.08L202.484 21.96V21.56L209.804 19.2L210.204 19.6L210.084 25.28V36.48C210.084 37.0133 210.178 37.44 210.364 37.76C210.578 38.08 210.938 38.32 211.444 38.48L211.844 38.6V39H202.484ZM222.224 39.12L215.144 22.12C214.77 21.2133 214.13 20.6133 213.224 20.32L212.664 20.16V19.76H223.024V20.16L222.304 20.32C221.264 20.5867 220.944 21.28 221.344 22.4L225.544 33.56L229.464 22.48C229.677 21.9467 229.73 21.5067 229.624 21.16C229.517 20.8133 229.197 20.56 228.664 20.4L227.664 20.16V19.76H233.464V20.16L232.304 20.44C231.797 20.5733 231.397 20.7733 231.104 21.04C230.837 21.3067 230.61 21.7067 230.424 22.24L224.544 39.12H222.224ZM243.46 19.16C245.193 19.16 246.673 19.52 247.9 20.24C249.127 20.9333 250.06 21.8933 250.7 23.12C251.367 24.32 251.7 25.6933 251.7 27.24C251.7 27.5333 251.687 27.84 251.66 28.16C251.633 28.4533 251.58 28.72 251.5 28.96H239.58C239.607 31.84 240.113 33.92 241.1 35.2C242.113 36.4533 243.607 37.08 245.58 37.08C246.913 37.08 247.993 36.8667 248.82 36.44C249.647 36.0133 250.42 35.3867 251.14 34.56L251.54 34.92C250.713 36.3867 249.607 37.5333 248.22 38.36C246.86 39.1867 245.22 39.6 243.3 39.6C241.407 39.6 239.727 39.2 238.26 38.4C236.793 37.5733 235.647 36.4 234.82 34.88C233.993 33.36 233.58 31.5467 233.58 29.44C233.58 27.2533 234.06 25.4 235.02 23.88C235.98 22.3333 237.207 21.16 238.7 20.36C240.22 19.56 241.807 19.16 243.46 19.16ZM243.34 19.96C242.567 19.96 241.9 20.2 241.34 20.68C240.807 21.1333 240.38 21.96 240.06 23.16C239.767 24.3333 239.607 26 239.58 28.16H246.42C246.687 25.2533 246.58 23.16 246.1 21.88C245.62 20.6 244.7 19.96 243.34 19.96Z" fill="#292F36"/>
<rect width="10.2285" height="35" rx="4" transform="matrix(1 0 -0.431771 0.901983 15.1121 10)" fill="#406636"/>
<rect width="11.1584" height="35" rx="4" transform="matrix(1 0 -0.431771 0.901983 28.1301 10)" fill="#5E8454"/>
<rect width="10.2285" height="35" rx="4" transform="matrix(1 0 -0.431771 0.901983 42.0781 10)" fill="#406636"/>
</svg>
