<svg width="41" height="41" viewBox="0 0 41 41" fill="none" xmlns="http://www.w3.org/2000/svg">
<rect x="1" y="0.819824" width="39" height="39" rx="19.5" stroke="#406636"/>
<path d="M17.2807 27.9032C15.1529 27.9032 13.1695 27.2657 11.5 26.1657C12.9174 26.2602 15.4188 26.0339 16.9747 24.5052C14.6342 24.3945 13.5786 22.5454 13.4409 21.7552C13.6398 21.8342 14.5883 21.929 15.1237 21.7078C12.4313 21.0124 12.0183 18.5784 12.11 17.8356C12.6149 18.1991 13.4715 18.3256 13.8081 18.294C11.2993 16.4448 12.2018 13.6632 12.6455 13.0626C14.4459 15.6321 17.1442 17.0752 20.4823 17.1554C20.4194 16.8711 20.3861 16.575 20.3861 16.271C20.3861 14.0888 22.0984 12.3198 24.2106 12.3198C25.3142 12.3198 26.3086 12.8027 27.0066 13.5752C27.7441 13.3972 28.854 12.9805 29.3965 12.6201C29.1231 13.6316 28.2716 14.4754 27.7566 14.7881C27.7524 14.7775 27.7609 14.7988 27.7566 14.7881C28.209 14.7176 29.4331 14.4753 29.9167 14.1374C29.6775 14.7056 28.7748 15.6504 28.034 16.1794C28.1719 22.4409 23.5211 27.9032 17.2807 27.9032Z" fill="#406636"/>
</svg>
