<svg width="41" height="41" viewBox="0 0 41 41" fill="none" xmlns="http://www.w3.org/2000/svg">
<rect x="1" y="0.819824" width="39" height="39" rx="19.5" stroke="#406636"/>
<path d="M27.1542 15.4636C27.1542 16.2264 26.5358 16.8448 25.7729 16.8448C25.0101 16.8448 24.3917 16.2264 24.3917 15.4636C24.3917 14.7007 25.0101 14.0823 25.7729 14.0823C26.5358 14.0823 27.1542 14.7007 27.1542 15.4636Z" fill="#406636"/>
<path fill-rule="evenodd" clip-rule="evenodd" d="M20.7083 25.1323C23.2511 25.1323 25.3125 23.071 25.3125 20.5282C25.3125 17.9853 23.2511 15.924 20.7083 15.924C18.1655 15.924 16.1042 17.9853 16.1042 20.5282C16.1042 23.071 18.1655 25.1323 20.7083 25.1323ZM20.7083 23.2907C22.234 23.2907 23.4708 22.0538 23.4708 20.5282C23.4708 19.0025 22.234 17.7657 20.7083 17.7657C19.1826 17.7657 17.9458 19.0025 17.9458 20.5282C17.9458 22.0538 19.1826 23.2907 20.7083 23.2907Z" fill="#406636"/>
<path fill-rule="evenodd" clip-rule="evenodd" d="M11.5 20.1598C11.5 17.0655 11.5 15.5184 12.1022 14.3365C12.6319 13.2969 13.4771 12.4517 14.5167 11.922C15.6986 11.3198 17.2457 11.3198 20.34 11.3198H21.0767C24.171 11.3198 25.7181 11.3198 26.9 11.922C27.9396 12.4517 28.7848 13.2969 29.3145 14.3365C29.9167 15.5184 29.9167 17.0655 29.9167 20.1598V20.8965C29.9167 23.9908 29.9167 25.5379 29.3145 26.7198C28.7848 27.7594 27.9396 28.6046 26.9 29.1343C25.7181 29.7365 24.171 29.7365 21.0767 29.7365H20.34C17.2457 29.7365 15.6986 29.7365 14.5167 29.1343C13.4771 28.6046 12.6319 27.7594 12.1022 26.7198C11.5 25.5379 11.5 23.9908 11.5 20.8965V20.1598ZM20.34 13.1615H21.0767C22.6542 13.1615 23.7266 13.1629 24.5555 13.2306C25.3629 13.2966 25.7758 13.4162 26.0639 13.563C26.7569 13.9161 27.3204 14.4796 27.6735 15.1726C27.8203 15.4607 27.9399 15.8736 28.0058 16.681C28.0736 17.5099 28.075 18.5823 28.075 20.1598V20.8965C28.075 22.474 28.0736 23.5464 28.0058 24.3753C27.9399 25.1827 27.8203 25.5957 27.6735 25.8837C27.3204 26.5768 26.7569 27.1402 26.0639 27.4934C25.7758 27.6401 25.3629 27.7597 24.5555 27.8257C23.7266 27.8934 22.6542 27.8948 21.0767 27.8948H20.34C18.7625 27.8948 17.6901 27.8934 16.8612 27.8257C16.0537 27.7597 15.6408 27.6401 15.3528 27.4934C14.6597 27.1402 14.0963 26.5768 13.7431 25.8837C13.5964 25.5957 13.4768 25.1827 13.4108 24.3753C13.3431 23.5464 13.3417 22.474 13.3417 20.8965V20.1598C13.3417 18.5823 13.3431 17.5099 13.4108 16.681C13.4768 15.8736 13.5964 15.4607 13.7431 15.1726C14.0963 14.4796 14.6597 13.9161 15.3528 13.563C15.6408 13.4162 16.0537 13.2966 16.8612 13.2306C17.6901 13.1629 18.7625 13.1615 20.34 13.1615Z" fill="#406636"/>
</svg>
