<svg width="41" height="41" viewBox="0 0 41 41" fill="none" xmlns="http://www.w3.org/2000/svg">
<rect x="1" y="0.819824" width="39" height="39" rx="19.5" stroke="#406636"/>
<path d="M15.9428 13.5458C15.9428 14.7752 14.9482 15.7718 13.7214 15.7718C12.4946 15.7718 11.5 14.7752 11.5 13.5458C11.5 12.3164 12.4946 11.3198 13.7214 11.3198C14.9482 11.3198 15.9428 12.3164 15.9428 13.5458Z" fill="#406636"/>
<path d="M11.8038 17.408H15.601V29.7365H11.8038V17.408Z" fill="#406636"/>
<path d="M21.7146 17.408H17.9174V29.7365H21.7146C21.7146 29.7365 21.7146 25.8553 21.7146 23.4286C21.7146 21.972 22.1788 20.5091 24.0309 20.5091C26.1241 20.5091 26.1115 22.4153 26.1017 23.892C26.089 25.8222 26.1194 27.792 26.1194 29.7365H29.9167V23.2298C29.8845 19.0751 28.8741 17.1606 25.5498 17.1606C23.5757 17.1606 22.352 18.1209 21.7146 18.9897V17.408Z" fill="#406636"/>
</svg>
