<svg width="104" height="103" viewBox="0 0 104 103" fill="none" xmlns="http://www.w3.org/2000/svg">
<g id="02">
<g id="Group">
<path id="Vector" d="M52.0119 101.606C79.8726 101.606 102.458 79.0206 102.458 51.16C102.458 23.2993 79.8726 0.713745 52.0119 0.713745C24.1512 0.713745 1.56567 23.2993 1.56567 51.16C1.56567 79.0206 24.1512 101.606 52.0119 101.606Z" fill="white"/>
<path id="Vector_2" d="M52.012 102.32C23.8055 102.32 0.852051 79.3664 0.852051 51.1599C0.852051 22.9535 23.8055 0 52.012 0C80.2185 0 103.172 22.9535 103.172 51.1599C103.172 79.3664 80.2185 102.32 52.012 102.32ZM52.012 1.42745C24.5906 1.42745 2.2795 23.7386 2.2795 51.1599C2.2795 78.5813 24.5906 100.892 52.012 100.892C79.4334 100.892 101.744 78.5813 101.744 51.1599C101.744 23.7386 79.4334 1.42745 52.012 1.42745Z" fill="#292F36"/>
</g>
<g id="Group_2">
<path id="Vector_3" d="M59.2064 5.83827C59.549 5.86682 59.8487 5.88109 60.0914 5.88109L60.0629 6.10949C59.6632 6.16658 59.3206 6.46635 59.0494 7.03733L55.652 13.832L55.5521 13.8177L55.4665 13.8035L53.311 6.22368C53.1683 5.72407 52.9256 5.45286 52.583 5.41003L52.6116 5.18164C52.9256 5.23874 53.3396 5.28156 53.8534 5.33866C54.5243 5.39576 55.024 5.43858 55.3523 5.43858L55.3237 5.66697C55.024 5.6527 54.8098 5.66697 54.6814 5.7098C54.5529 5.75262 54.4815 5.86682 54.4672 6.00956C54.453 6.13803 54.4815 6.3236 54.5529 6.56627L56.1374 12.3617L58.4927 7.62259C58.6925 7.23717 58.7924 6.92313 58.821 6.69474C58.8495 6.45207 58.7782 6.26651 58.6211 6.13803C58.4641 6.00956 58.2072 5.93819 57.8646 5.89537L57.8931 5.66697C58.3071 5.73835 58.7496 5.79545 59.2064 5.83827Z" fill="#292F36"/>
<path id="Vector_4" d="M68.7987 8.85021C68.6559 8.85021 68.5418 8.90731 68.4561 9.02151C68.3705 9.13571 68.2705 9.32127 68.1706 9.59249L66.1294 15.0168C66.0294 15.288 65.9723 15.5021 65.9723 15.6449C65.9723 15.7876 66.0152 15.9018 66.1151 15.9875C66.215 16.0731 66.4006 16.1731 66.6575 16.2872L66.5719 16.5014C66.2436 16.3586 65.7868 16.1731 65.2015 15.9447C64.5734 15.702 64.1024 15.545 63.7883 15.4451L63.874 15.2309C64.1452 15.3166 64.345 15.3594 64.4735 15.3594C64.602 15.3594 64.7305 15.3023 64.8161 15.1881C64.9017 15.0739 65.0017 14.8883 65.1016 14.6171L67.1428 9.1928C67.2428 8.92159 67.2999 8.70747 67.2999 8.56472C67.2999 8.42198 67.257 8.30778 67.1571 8.22214C67.0572 8.13649 66.8716 8.03657 66.6147 7.92237L66.7003 7.70825C67.0001 7.83672 67.4569 8.02229 68.085 8.26496C68.6702 8.49335 69.1413 8.65037 69.4839 8.75029L69.3982 8.96441C69.1413 8.87876 68.9414 8.83594 68.7987 8.85021Z" fill="#292F36"/>
<path id="Vector_5" d="M81.5031 16.4014C81.3603 16.3728 81.2176 16.4157 81.0891 16.5013C80.9606 16.5869 80.8036 16.7582 80.6323 17.0009L76.4927 22.6108L76.2786 22.4538L76.8353 13.4323L73.1668 18.3998C72.9955 18.6425 72.8813 18.8423 72.8242 18.9993C72.7671 19.1564 72.7956 19.2991 72.867 19.4419C72.9384 19.5846 73.1097 19.7416 73.3523 19.9415L73.2096 20.127C72.9955 19.9415 72.6814 19.6988 72.2675 19.3848C71.8963 19.1135 71.5966 18.8994 71.3682 18.771L71.5109 18.5854C71.7393 18.7424 71.9249 18.8281 72.0676 18.8423C72.2104 18.8709 72.3531 18.8281 72.4816 18.7424C72.61 18.6425 72.7671 18.4855 72.9384 18.2428L76.3072 13.6749C76.4784 13.4323 76.5926 13.2467 76.6355 13.1182C76.6783 12.9898 76.664 12.8613 76.5926 12.7471C76.5213 12.6329 76.3785 12.4902 76.1501 12.3046L76.2929 12.119C76.4784 12.2903 76.7639 12.5187 77.1493 12.7899C77.4348 13.004 77.6775 13.1753 77.9059 13.3038L77.4491 20.8693L80.4182 16.8439C80.5895 16.6012 80.718 16.4014 80.7608 16.2444C80.8036 16.0873 80.7894 15.9446 80.718 15.8018C80.6466 15.6591 80.4753 15.4878 80.2326 15.3022L80.3754 15.1167C80.5895 15.3022 80.9036 15.5449 81.3175 15.8589C81.6886 16.1302 81.9884 16.3443 82.2168 16.4728L82.0741 16.6583C81.8314 16.5156 81.6458 16.4157 81.5031 16.4014Z" fill="#292F36"/>
<path id="Vector_6" d="M86.2851 22.8392C86.6562 22.568 87.0416 22.2682 87.4556 21.8971C87.8125 22.4395 88.4405 23.3388 89.3398 24.6093C90.2391 25.8654 90.8815 26.7504 91.2669 27.2643C90.7816 27.5498 90.3676 27.8068 89.9965 28.0637C89.6824 28.2921 89.4255 28.4919 89.2399 28.6489L89.0829 28.4348C89.5397 28.0351 89.8537 27.7068 90.0393 27.4642C90.2249 27.2215 90.2962 26.9646 90.282 26.6933C90.2677 26.4221 90.0964 26.0938 89.8252 25.6941L89.454 25.1802L84.044 29.0344C83.787 29.2199 83.6015 29.3912 83.5158 29.5197C83.4302 29.6482 83.4016 29.8052 83.4587 29.9765C83.5016 30.1335 83.63 30.3619 83.8156 30.6474L83.63 30.7901C83.4159 30.4475 83.0876 29.9622 82.6594 29.377C82.2026 28.7346 81.86 28.2778 81.6316 27.9923L81.8172 27.8496C82.0313 28.1208 82.2026 28.3064 82.3453 28.4063C82.4881 28.5062 82.6308 28.5348 82.7878 28.4919C82.9449 28.4491 83.159 28.3349 83.4159 28.1493L88.826 24.2952L88.4548 23.7813C88.1693 23.3816 87.9124 23.139 87.6697 23.0248C87.4271 22.9106 87.1558 22.8963 86.8703 22.9962C86.5849 23.0962 86.1709 23.2817 85.6427 23.5815L85.4857 23.3674C85.6998 23.2532 85.9568 23.0819 86.2851 22.8392Z" fill="#292F36"/>
<path id="Vector_7" d="M89.0257 42.6523L88.7973 42.7237C88.7116 42.4096 88.5974 42.0099 88.4261 41.5246C88.212 40.8965 88.0407 40.4255 87.9123 40.1114L88.1407 40.04C88.2406 40.3113 88.3548 40.5111 88.4404 40.611C88.5403 40.711 88.6688 40.7395 88.8115 40.6824C88.94 40.6396 89.097 40.5397 89.2826 40.3826L90.8671 39.0837L89.9678 36.4143L88.6403 36.3572C88.212 36.3287 87.8837 36.3572 87.6553 36.4429C87.4269 36.5285 87.2842 36.657 87.2271 36.8426C87.1843 37.0281 87.2128 37.2993 87.3127 37.6277L87.0843 37.699C86.9701 37.2708 86.8274 36.8426 86.6846 36.4143C86.5705 36.086 86.4705 35.8148 86.3706 35.6007L86.599 35.5293C86.7988 35.8719 87.2271 36.0575 87.8552 36.0717L95.4492 36.4143L95.5063 36.5856L89.4539 41.6245C89.0828 41.9814 88.94 42.3097 89.0257 42.6523ZM93.9789 36.5856L90.239 36.4286L91.0812 38.9409L93.9789 36.5856Z" fill="#292F36"/>
<path id="Vector_8" d="M90.0679 53.5724C90.2107 53.5153 90.282 53.4439 90.282 53.344C90.282 53.2869 90.2678 53.2441 90.2392 53.2013C90.2107 53.1584 90.1536 53.0728 90.0679 52.9586C89.8538 52.6874 89.6968 52.4019 89.5826 52.1164C89.4684 51.8309 89.4113 51.5026 89.4113 51.1457C89.397 50.3464 89.554 49.6612 89.8681 49.0759C90.1964 48.4907 90.6532 48.0481 91.2813 47.7341C91.8951 47.4201 92.6373 47.263 93.5081 47.2488C94.4074 47.2345 95.1925 47.3772 95.8634 47.6913C96.5343 48.0053 97.0624 48.4336 97.4336 49.0045C97.8047 49.5755 98.0046 50.2179 98.0046 50.9316C98.0046 51.2456 97.976 51.5311 97.9189 51.7738C97.8618 52.0165 97.7762 52.2306 97.6763 52.4162C97.5763 52.6017 97.4479 52.8158 97.2766 53.0442C97.2052 53.1442 97.1624 53.2298 97.1624 53.2869C97.1624 53.4297 97.405 53.5296 97.8761 53.5724V53.8436C97.3765 53.8151 96.4772 53.8151 95.1925 53.8436V53.5724C95.6064 53.501 95.949 53.4154 96.2202 53.3297C96.4915 53.2441 96.7199 53.1156 96.9197 52.9586C97.1909 52.7302 97.4193 52.4304 97.5763 52.0593C97.7333 51.6882 97.8047 51.317 97.8047 50.9173C97.7904 50.4034 97.6192 49.9609 97.2766 49.5755C96.934 49.1901 96.4486 48.9046 95.8348 48.6905C95.2068 48.4907 94.493 48.3907 93.6651 48.405C92.723 48.4193 91.9664 48.5335 91.3669 48.7476C90.7674 48.9617 90.3391 49.2758 90.0536 49.6897C89.7682 50.1037 89.6397 50.6318 89.654 51.2742C89.6682 51.7453 89.7967 52.1449 90.0394 52.4875C90.1393 52.6303 90.2249 52.7159 90.3249 52.7587C90.4105 52.8016 90.539 52.8158 90.696 52.8158L91.8237 52.8016C92.152 52.8016 92.3804 52.7587 92.5374 52.7016C92.6802 52.6445 92.7944 52.5304 92.8372 52.3591C92.8943 52.202 92.9228 51.9451 92.9228 51.6025H93.1512C93.137 51.9879 93.1227 52.5304 93.1369 53.2584C93.1512 53.8008 93.1655 54.2147 93.194 54.4717H92.9656C92.9514 54.2861 92.9086 54.1577 92.8657 54.0863C92.8229 54.0149 92.723 53.9578 92.5945 53.9293C92.466 53.9007 92.2519 53.8864 91.9522 53.9007L89.6397 53.9435V53.7151C89.7682 53.658 89.9252 53.6295 90.0679 53.5724Z" fill="#292F36"/>
<path id="Vector_9" d="M88.3691 65.72C87.9551 65.5915 87.4698 65.463 86.9131 65.3488C87.0987 64.8492 87.3699 64.007 87.7553 62.8079C88.2121 61.3805 88.5404 60.2956 88.7402 59.5676L88.9686 59.639C88.8972 59.9102 88.8687 60.1101 88.8687 60.2528C88.883 60.3955 88.9401 60.4955 89.0543 60.5811C89.1685 60.6668 89.3683 60.7524 89.6395 60.8381L95.1638 62.5796C95.4493 62.6652 95.6491 62.708 95.7918 62.708C95.9346 62.708 96.0488 62.6509 96.1344 62.5367C96.2201 62.4225 96.3057 62.237 96.4057 61.98L96.634 62.0514C96.3771 62.7794 96.0345 63.85 95.5777 65.2774C95.2351 66.3623 94.9925 67.1474 94.8783 67.6185C94.4072 67.4186 93.979 67.2473 93.5793 67.1331C93.2938 67.0475 93.0511 66.9761 92.8798 66.9476L92.9655 66.6906C93.4651 66.7905 93.8505 66.8334 94.1075 66.8334C94.3644 66.8334 94.5785 66.7477 94.7498 66.5764C94.9211 66.4194 95.0638 66.1339 95.1923 65.7485L95.4778 64.8207C95.5635 64.5494 95.6063 64.3496 95.592 64.2211C95.5777 64.0927 95.5349 63.9785 95.4207 63.8928C95.3065 63.8072 95.1209 63.7215 94.8354 63.6359L92.2089 62.8079L91.9805 63.5502C91.8663 63.9214 91.8949 64.2069 92.0805 64.4067C92.266 64.6065 92.4659 64.7493 92.6943 64.8492C92.9227 64.9491 93.0654 65.0205 93.1225 65.049L93.0369 65.306C92.68 65.1632 92.3374 65.0348 91.9948 64.9349L91.4667 64.7778C91.0955 64.6636 90.5531 64.5066 89.8679 64.3496L89.9536 64.0927C90.0107 64.1069 90.1962 64.1355 90.5103 64.2069C90.8243 64.2639 91.0955 64.2354 91.3096 64.1212C91.5238 64.007 91.6665 63.7929 91.7664 63.4931L91.9948 62.7508L89.3112 61.9087C89.0257 61.823 88.8259 61.7802 88.6831 61.7802C88.5404 61.7802 88.4262 61.8373 88.3548 61.9515C88.2692 62.0657 88.1835 62.2512 88.0979 62.5225L87.8409 63.3361C87.6982 63.8072 87.6411 64.1783 87.6982 64.4495C87.741 64.735 87.8838 64.9634 88.1264 65.1632C88.3691 65.3488 88.7402 65.5629 89.2398 65.7913L89.1542 66.0483C88.9829 65.9198 88.7117 65.8342 88.3691 65.72Z" fill="#292F36"/>
<path id="Vector_10" d="M84.301 83.2349C84.3581 83.1064 84.3438 82.978 84.2867 82.8495C84.2296 82.721 84.0869 82.564 83.8728 82.3499L79.676 78.3387C79.4619 78.1389 79.2906 78.0104 79.1622 77.9533C79.0337 77.8962 78.9052 77.8962 78.7767 77.9533C78.6483 78.0104 78.4913 78.1389 78.2914 78.3387L78.1201 78.1817C78.3913 77.939 78.7339 77.5822 79.1764 77.1397C79.6332 76.6543 79.9758 76.2832 80.1899 76.0405L80.3612 76.1975C80.1756 76.4117 80.0615 76.583 80.0044 76.6972C79.9473 76.8256 79.9615 76.9541 80.0186 77.0826C80.0757 77.211 80.2185 77.3681 80.4326 77.5822L84.6293 81.5933C84.8434 81.7932 85.0147 81.9216 85.1432 81.9787C85.2717 82.0358 85.4001 82.0358 85.5286 81.9787C85.6571 81.9216 85.8141 81.7932 86.0139 81.5933L86.1852 81.7503C85.9426 81.9645 85.5857 82.3213 85.1289 82.8067C84.6864 83.2634 84.3581 83.6346 84.1297 83.9058L83.9584 83.7488C84.1297 83.5347 84.2439 83.3634 84.301 83.2349Z" fill="#292F36"/>
<path id="Vector_11" d="M72.4102 91.9422C72.4959 91.8138 72.5101 91.6853 72.4816 91.5283C72.453 91.3713 72.3531 91.1714 72.1961 90.9002L68.656 84.8906L68.8844 84.7479L76.9638 88.7876L73.8377 83.4774C73.6806 83.2205 73.5522 83.0349 73.4237 82.935C73.2952 82.8351 73.1525 82.7923 72.9955 82.8065C72.8384 82.8208 72.6243 82.9065 72.3531 83.0492L72.2246 82.8494C72.4816 82.7352 72.8242 82.5353 73.2667 82.2784C73.6664 82.0357 73.9661 81.8501 74.1802 81.6931L74.2944 81.893C74.0661 82.0357 73.909 82.1784 73.8377 82.3069C73.752 82.4354 73.7377 82.5639 73.7663 82.7209C73.7948 82.8779 73.8948 83.0777 74.0518 83.349L76.9352 88.2451C77.078 88.5021 77.2065 88.6734 77.3206 88.759C77.4348 88.8447 77.549 88.8875 77.6918 88.8589C77.8203 88.8304 78.0201 88.759 78.2628 88.6305L78.377 88.8304C78.1486 88.9446 77.8345 89.1159 77.4206 89.3585C77.1208 89.5298 76.8639 89.7011 76.6497 89.8439L69.8693 86.4608L72.4102 90.7717C72.5672 91.0287 72.6957 91.2142 72.8242 91.3142C72.9384 91.4141 73.0811 91.4569 73.2524 91.4426C73.4237 91.4283 73.6378 91.3427 73.909 91.2L74.0232 91.3998C73.7663 91.514 73.4237 91.7138 72.9812 91.9708C72.5815 92.2134 72.2817 92.399 72.0676 92.556L71.9534 92.3562C72.1675 92.1992 72.3246 92.0564 72.4102 91.9422Z" fill="#292F36"/>
<path id="Vector_12" d="M64.5592 93.8123C64.6592 94.2548 64.7876 94.7401 64.9589 95.254C64.3166 95.3682 63.246 95.5966 61.7329 95.9106C60.2198 96.239 59.1635 96.4816 58.5354 96.6386C58.464 96.0819 58.3926 95.5966 58.2927 95.1541C58.2071 94.7687 58.1357 94.4546 58.05 94.2262L58.307 94.1691C58.4926 94.7544 58.6639 95.1684 58.8209 95.4396C58.9779 95.7108 59.1777 95.8821 59.4347 95.9677C59.6916 96.0534 60.0628 96.0391 60.5338 95.9392L61.1476 95.8107L59.7487 89.3158C59.6773 89.0018 59.606 88.7734 59.5061 88.6449C59.4061 88.5164 59.2919 88.4308 59.1206 88.4165C58.9493 88.388 58.6924 88.4165 58.3498 88.4736L58.307 88.2452C58.7067 88.1881 59.2777 88.0739 59.9914 87.9169C60.7479 87.7456 61.3189 87.6171 61.6758 87.5172L61.7186 87.7456C61.376 87.8313 61.1476 87.9169 61.0049 88.0025C60.8621 88.0882 60.7765 88.2167 60.7479 88.3737C60.7194 88.5307 60.7337 88.7734 60.805 89.0874L62.2039 95.5823L62.8177 95.4539C63.2888 95.3539 63.6314 95.2112 63.8312 95.0256C64.0311 94.84 64.1453 94.5974 64.1738 94.2976C64.2024 93.9978 64.1881 93.5411 64.1167 92.9415L64.3737 92.8844C64.4165 93.1128 64.4736 93.4269 64.5592 93.8123Z" fill="#292F36"/>
<path id="Vector_13" d="M45.6168 89.8011C45.6597 89.3586 45.6739 88.859 45.6739 88.3022C46.2021 88.3736 47.0871 88.4593 48.3433 88.5735C49.8278 88.7019 50.9555 88.8019 51.7263 88.8447L51.7121 89.0731C51.4266 89.0588 51.2267 89.0731 51.0983 89.1159C50.9698 89.1587 50.8699 89.2301 50.8128 89.3586C50.7557 89.487 50.7129 89.7012 50.6843 89.9866L50.1704 95.7678C50.1419 96.0533 50.1561 96.2674 50.1847 96.4102C50.2132 96.5529 50.2989 96.6528 50.4274 96.7099C50.5558 96.767 50.7557 96.8241 51.0269 96.8527L51.0126 97.0811C50.2561 96.9954 49.1284 96.8812 47.6438 96.7528C46.5019 96.6528 45.6882 96.5958 45.2029 96.5672C45.3028 96.0676 45.3742 95.6108 45.4027 95.1968C45.4313 94.8971 45.4455 94.6544 45.4313 94.4688L45.7025 94.4974C45.7168 95.0113 45.7453 95.3824 45.8167 95.6394C45.8738 95.8963 46.0023 96.0819 46.2021 96.2103C46.3877 96.3388 46.7017 96.4245 47.1014 96.453L48.0721 96.5386C48.3576 96.5672 48.5574 96.5529 48.6859 96.5244C48.8143 96.4958 48.9143 96.4102 48.9714 96.2817C49.0285 96.1532 49.0713 95.9391 49.0998 95.6536L49.3425 92.9129L48.5717 92.8415C48.1863 92.813 47.915 92.8986 47.758 93.127C47.6153 93.3554 47.5011 93.5838 47.4583 93.8265C47.4012 94.0692 47.3726 94.2262 47.3583 94.2975L47.0871 94.269C47.1442 93.8836 47.187 93.5267 47.2299 93.1699L47.2727 92.6132C47.3012 92.2135 47.3298 91.671 47.3583 90.9573L47.6296 90.9859C47.6296 91.043 47.6438 91.2285 47.6438 91.5568C47.6581 91.8852 47.7295 92.1421 47.9008 92.3134C48.0578 92.499 48.3005 92.5989 48.6145 92.6274L49.3853 92.6988L49.628 89.901C49.6565 89.6155 49.6423 89.4014 49.6137 89.2586C49.5852 89.1302 49.4995 89.0302 49.371 88.9732C49.2426 88.9161 49.0427 88.8732 48.7715 88.8447L47.915 88.7733C47.4297 88.7305 47.0586 88.759 46.7874 88.8732C46.5304 88.9731 46.3306 89.173 46.1878 89.4442C46.0451 89.7154 45.9309 90.1294 45.8167 90.6718L45.5455 90.6433C45.5455 90.4292 45.574 90.1437 45.6168 89.8011Z" fill="#292F36"/>
<path id="Vector_14" d="M34.3828 84.5053C34.5969 84.4625 34.8396 84.5053 35.0965 84.6195C35.3963 84.748 35.5961 84.9335 35.7103 85.1762C35.8245 85.4331 35.8388 85.79 35.7674 86.2611L35.5533 87.4316C35.482 87.8455 35.4391 88.1596 35.4249 88.4023C35.4106 88.6306 35.4677 88.8448 35.5676 89.0303C35.6675 89.2159 35.8531 89.3586 36.1243 89.4728L37.1521 89.9011L38.1941 87.4173C38.3083 87.1461 38.3654 86.9462 38.3797 86.8035C38.394 86.6608 38.3369 86.5466 38.2369 86.4466C38.137 86.3467 37.9657 86.2468 37.7088 86.1326L37.7944 85.9185C38.1227 86.0755 38.5653 86.2753 39.1505 86.518C39.7643 86.775 40.2354 86.9605 40.5494 87.0604L40.4638 87.2746C40.1926 87.1746 39.9927 87.1318 39.8642 87.1175C39.7215 87.1175 39.6073 87.1604 39.5216 87.2746C39.4217 87.3745 39.3218 87.5601 39.2076 87.8313L36.9665 93.1842C36.8523 93.4554 36.7952 93.6553 36.7809 93.798C36.7667 93.9408 36.8238 94.055 36.9237 94.1549C37.0236 94.2548 37.1949 94.3547 37.4518 94.4832L37.3662 94.6973C37.0664 94.5546 36.6382 94.3547 36.0672 94.1121C35.7817 93.9979 35.482 93.8694 35.1394 93.7267C34.7968 93.5839 34.5684 93.4983 34.4399 93.4412C33.8832 93.1985 33.4407 92.9273 33.1124 92.599C32.7841 92.2707 32.5985 91.9281 32.5128 91.5569C32.4272 91.1858 32.47 90.8289 32.627 90.4721C32.7412 90.1866 32.9268 89.9296 33.1838 89.7012C33.4407 89.4728 33.769 89.3015 34.1687 89.2159C34.5684 89.1303 35.0537 89.1445 35.5819 89.273L35.4534 89.2016C35.1536 89.0161 34.9252 88.8305 34.7825 88.6306C34.6398 88.4451 34.5398 88.231 34.5113 88.0026C34.4685 87.7742 34.4827 87.4887 34.5398 87.1461L34.7397 85.9328C34.7825 85.6901 34.8111 85.5045 34.8111 85.3618C34.8111 85.219 34.7968 85.1048 34.754 85.0192C34.7111 84.9335 34.6398 84.8622 34.5398 84.8336C34.4256 84.7765 34.3114 84.7765 34.2115 84.8051C34.1116 84.8336 33.9689 84.905 33.7833 85.0049L33.6691 84.8193C33.926 84.6623 34.1687 84.5481 34.3828 84.5053ZM35.0965 89.587C34.754 89.6299 34.4827 89.7583 34.2686 89.9724C34.0545 90.1866 33.8689 90.4721 33.7119 90.8432C33.4692 91.4285 33.4121 91.9423 33.5692 92.3563C33.7262 92.7703 34.1116 93.1128 34.754 93.3841C34.9823 93.484 35.1536 93.5268 35.2964 93.5125C35.4249 93.5125 35.5391 93.4554 35.639 93.3412C35.7389 93.227 35.8388 93.0415 35.9387 92.7845L37.0522 90.1295L36.3242 89.8297C35.8531 89.6299 35.4391 89.5442 35.0965 89.587Z" fill="#292F36"/>
<path id="Vector_15" d="M23.2487 86.4466C23.3771 86.4894 23.5056 86.4609 23.6198 86.3895C23.734 86.3181 23.891 86.1611 24.0766 85.9327L27.6595 81.3649C27.8451 81.1365 27.9593 80.9509 28.0021 80.8225C28.0449 80.694 28.0306 80.5655 27.9593 80.4513C27.8879 80.3371 27.7451 80.1801 27.531 79.9945L27.6738 79.809C27.945 80.0516 28.3161 80.3657 28.8157 80.7511C29.3439 81.165 29.7436 81.4648 30.0148 81.6504L29.872 81.8359C29.6436 81.6647 29.4581 81.5647 29.3296 81.5362C29.2011 81.4934 29.0727 81.5076 28.9585 81.5933C28.8443 81.6646 28.6873 81.8217 28.5017 82.0501L24.9188 86.6179C24.7332 86.8463 24.619 87.0319 24.5762 87.1603C24.5334 87.2888 24.5476 87.4173 24.619 87.5315C24.6904 87.6457 24.8331 87.8027 25.0472 87.9883L24.9045 88.1738C24.6618 87.9597 24.2764 87.6457 23.7483 87.2174C23.2487 86.832 22.849 86.5323 22.5635 86.3324L22.7062 86.1469C22.9489 86.3039 23.1202 86.4038 23.2487 86.4466Z" fill="#292F36"/>
<path id="Vector_16" d="M14.0274 76.2832C13.9703 75.6409 14.1131 74.9985 14.4414 74.3847C14.784 73.7566 15.2978 73.1999 16.0116 72.6717C16.711 72.1721 17.4105 71.8438 18.1385 71.7154C18.8665 71.5869 19.5374 71.6297 20.1655 71.8724C20.7935 72.115 21.3217 72.529 21.7357 73.1143C22.1782 73.7138 22.4208 74.3419 22.4779 74.9842C22.535 75.6266 22.3923 76.2689 22.064 76.8827C21.7214 77.5108 21.2075 78.0675 20.4938 78.5957C19.7943 79.0953 19.0949 79.4236 18.3669 79.5521C17.6531 79.6805 16.968 79.6377 16.3399 79.3951C15.7118 79.1524 15.1837 78.7384 14.7697 78.1674C14.3272 77.5536 14.0845 76.9256 14.0274 76.2832ZM16.1686 78.8241C16.6682 78.924 17.2392 78.8812 17.8673 78.6813C18.4953 78.4815 19.1234 78.1532 19.7801 77.6678C20.4367 77.1968 20.9506 76.6829 21.3074 76.1405C21.6786 75.598 21.8784 75.0556 21.907 74.5417C21.9498 74.0278 21.8213 73.571 21.5501 73.1856C21.2503 72.7859 20.8649 72.529 20.351 72.4291C19.8514 72.3292 19.2804 72.372 18.6524 72.5718C18.0243 72.7717 17.3962 73.1 16.7396 73.571C16.0829 74.0421 15.5691 74.556 15.2122 75.1127C14.8411 75.6551 14.6412 76.1833 14.5984 76.7114C14.5556 77.2253 14.684 77.6821 14.9553 78.0675C15.255 78.4672 15.6547 78.7242 16.1686 78.8241Z" fill="#292F36"/>
<path id="Vector_17" d="M15.1265 59.0966C15.2978 59.2251 15.4263 59.4392 15.5119 59.7247C15.6119 60.0245 15.5976 60.31 15.4834 60.5526C15.3692 60.8096 15.098 61.0522 14.684 61.2949L13.642 61.8801C13.2851 62.0943 13.0139 62.2656 12.8283 62.4083C12.6428 62.5511 12.5143 62.7224 12.4429 62.9222C12.3715 63.122 12.3715 63.3504 12.4572 63.6359L12.7855 64.7065L15.3549 63.9071C15.6404 63.8215 15.826 63.7358 15.9402 63.6502C16.0544 63.5645 16.1115 63.4504 16.1257 63.3219C16.14 63.1934 16.0972 62.9793 16.0258 62.7081L16.2542 62.6367C16.3399 62.9793 16.4683 63.4646 16.6682 64.0642C16.868 64.7065 17.025 65.1776 17.1392 65.4773L16.9108 65.5487C16.8109 65.2775 16.7253 65.0919 16.6396 64.992C16.554 64.8921 16.4398 64.8207 16.297 64.8207C16.1543 64.8207 15.9402 64.8493 15.669 64.9492L10.1304 66.6621C9.84495 66.7478 9.65938 66.8334 9.54518 66.9191C9.43099 67.0047 9.37389 67.1189 9.35961 67.2474C9.34534 67.3901 9.38816 67.59 9.45954 67.8612L9.23114 67.9326C9.15977 67.6185 9.0313 67.1617 8.84573 66.5622C8.76008 66.2767 8.64589 65.9484 8.53169 65.6058C8.41749 65.2632 8.33185 65.0205 8.28902 64.8921C8.10345 64.3068 8.04636 63.7929 8.08918 63.3362C8.132 62.8794 8.27475 62.5082 8.50314 62.2085C8.73153 61.9087 9.0313 61.7089 9.40244 61.5947C9.68793 61.509 10.002 61.4805 10.3446 61.5233C10.6871 61.5661 11.0155 61.7089 11.358 61.9658C11.7006 62.2227 11.9861 62.5939 12.2288 63.0935L12.2145 62.9507C12.1717 62.5939 12.1574 62.3084 12.2145 62.0657C12.2716 61.8231 12.3715 61.6232 12.5143 61.4519C12.6713 61.2806 12.8997 61.0951 13.1995 60.9238L14.2558 60.2957C14.4699 60.1815 14.6412 60.0673 14.7411 59.9816C14.841 59.896 14.9267 59.8103 14.9695 59.7247C15.0123 59.639 15.0123 59.5391 14.9838 59.4392C14.941 59.3107 14.8839 59.2251 14.7982 59.168C14.7126 59.1109 14.5698 59.0395 14.37 58.9681L14.4413 58.754C14.7268 58.854 14.9695 58.9681 15.1265 59.0966ZM11.7149 62.9222C11.4722 62.6938 11.1868 62.5653 10.887 62.5368C10.5872 62.5082 10.2446 62.5511 9.85922 62.6795C9.24542 62.8651 8.83145 63.1649 8.60306 63.5503C8.37467 63.9357 8.37467 64.4638 8.57451 65.1062C8.64589 65.3346 8.73153 65.5059 8.81718 65.6058C8.90283 65.7057 9.0313 65.7628 9.17404 65.7628C9.31679 65.7628 9.53091 65.72 9.78785 65.6486L12.5286 64.7922L12.3002 64.0356C12.1574 63.5217 11.9576 63.1506 11.7149 62.9222Z" fill="#292F36"/>
<path id="Vector_18" d="M14.0274 45.55C14.5698 45.3074 14.8981 44.8506 15.0408 44.1654C15.0837 43.9085 15.0837 43.6515 15.0123 43.4089C14.9409 43.1662 14.8125 42.9521 14.6126 42.7665C14.4128 42.5809 14.1416 42.4525 13.7847 42.3954C13.4849 42.3383 13.2137 42.3668 12.9568 42.4667C12.6998 42.5667 12.4429 42.7237 12.2002 42.9378C11.9575 43.1519 11.6721 43.4374 11.358 43.7943C11.0012 44.194 10.6871 44.5223 10.4159 44.7507C10.1447 44.9933 9.84491 45.1646 9.5166 45.2931C9.18829 45.4216 8.81715 45.4358 8.40319 45.3645C7.97495 45.2788 7.61809 45.1218 7.36115 44.8649C7.1042 44.6079 6.91863 44.3082 6.83299 43.9513C6.74734 43.5944 6.74734 43.2233 6.81871 42.8236C6.86154 42.5809 6.91863 42.3954 6.99001 42.2241C7.06138 42.0528 7.13275 41.9243 7.2184 41.8244C7.30405 41.7245 7.38969 41.6103 7.50389 41.4961C7.64664 41.339 7.71801 41.2249 7.74656 41.1392C7.76083 41.0678 7.73228 41.0107 7.66091 40.9536C7.58954 40.8965 7.46107 40.8537 7.28977 40.7966L7.3326 40.5397C7.77511 40.6539 8.54593 40.8252 9.67362 41.0393L9.6308 41.2962C9.23111 41.2534 8.85997 41.2677 8.48883 41.3533C8.13197 41.4247 7.81793 41.5817 7.56099 41.8244C7.30405 42.0528 7.13275 42.3811 7.06138 42.7808C7.00428 43.052 7.01856 43.2947 7.08993 43.5373C7.1613 43.78 7.28977 43.9656 7.46107 44.1226C7.64664 44.2796 7.86075 44.3795 8.1177 44.4366C8.53166 44.508 8.88852 44.4509 9.18829 44.2511C9.48805 44.0512 9.77354 43.7943 10.0448 43.4945C10.316 43.1947 10.4873 42.9949 10.5872 42.895C10.9869 42.4667 11.3152 42.1384 11.5864 41.8958C11.8576 41.6531 12.1574 41.4818 12.4857 41.3676C12.814 41.2534 13.1709 41.2391 13.5563 41.3105C14.0274 41.3961 14.4128 41.5817 14.6983 41.8529C14.9837 42.1384 15.1693 42.4667 15.2692 42.8664C15.3692 43.2661 15.3692 43.6943 15.2835 44.1511C15.2121 44.5223 15.1265 44.8078 14.998 45.0362C14.8838 45.2645 14.7268 45.4644 14.5555 45.65C14.4128 45.807 14.3414 45.9212 14.3128 46.0068C14.2986 46.0782 14.3271 46.1353 14.3985 46.1924C14.4699 46.2495 14.5983 46.3066 14.7696 46.3494L14.7268 46.6064C14.3128 46.4922 13.3993 46.3066 11.9861 46.0496L12.0289 45.7927C12.8283 45.8641 13.4849 45.7927 14.0274 45.55Z" fill="#292F36"/>
<path id="Vector_19" d="M11.2009 33.5165C10.8012 33.3024 10.3444 33.1026 9.83057 32.9027C10.1446 32.346 10.6728 31.3754 11.3865 29.9907C12.1002 28.6204 12.5998 27.6497 12.871 27.0645C13.3421 27.3642 13.7703 27.6212 14.1558 27.821C14.4983 28.0066 14.7981 28.135 15.0265 28.235L14.898 28.4776C14.327 28.2492 13.8988 28.1065 13.599 28.0637C13.2993 28.0066 13.0281 28.0637 12.7997 28.2064C12.5713 28.3492 12.3429 28.6347 12.1288 29.0629L11.8433 29.6339L17.7387 32.7029C18.0241 32.8599 18.2525 32.9313 18.4096 32.9456C18.5666 32.9598 18.7093 32.917 18.8378 32.8028C18.9663 32.6886 19.109 32.4745 19.2803 32.1747L19.4944 32.2889C19.2803 32.6458 19.0091 33.1454 18.6665 33.802C18.3096 34.4872 18.0527 35.0154 17.8957 35.3437L17.6816 35.2295C17.8243 34.9154 17.9242 34.6728 17.9385 34.5158C17.9671 34.3445 17.9242 34.2017 17.81 34.0733C17.6958 33.9448 17.5103 33.8163 17.2248 33.6593L11.3294 30.576L11.0296 31.1327C10.8012 31.5609 10.7013 31.9035 10.7156 32.1747C10.7299 32.446 10.8441 32.6886 11.0582 32.9027C11.2723 33.1169 11.6292 33.4023 12.143 33.7307L12.0146 33.9733C11.829 33.8591 11.5435 33.7021 11.2009 33.5165Z" fill="#292F36"/>
<path id="Vector_20" d="M21.2788 17.1153C21.5215 16.8726 21.7213 16.6442 21.8641 16.4729L22.0354 16.6442C21.9497 16.7727 21.9069 16.9582 21.9212 17.1724C21.9355 17.3865 21.9926 17.6862 22.1068 18.0431L23.4057 21.9115L24.9188 23.4103C25.133 23.6102 25.29 23.7529 25.4184 23.81C25.5469 23.8671 25.6754 23.8671 25.8039 23.81C25.9323 23.7529 26.0893 23.6244 26.3035 23.4389L26.4748 23.6102C26.2035 23.8528 25.8467 24.1954 25.4042 24.6379C24.9331 25.109 24.5905 25.4801 24.3764 25.7228L24.2051 25.5515C24.3907 25.3374 24.5191 25.1804 24.5762 25.0519C24.6333 24.9234 24.6333 24.795 24.562 24.6665C24.5049 24.538 24.3621 24.3667 24.1623 24.1669L22.9061 22.925L18.1384 21.5261C17.8529 21.4404 17.6388 21.4119 17.4961 21.4262C17.3533 21.4404 17.2534 21.4833 17.182 21.5546L17.0107 21.3833C17.2391 21.1835 17.4961 20.9551 17.753 20.6839C18.2812 20.1415 18.6666 19.756 18.8807 19.4991L19.052 19.6704C18.6666 20.0558 18.5809 20.3556 18.7951 20.5697C18.8807 20.6553 18.9949 20.7124 19.1662 20.7695L23.1773 22.0114L22.121 18.8567C21.964 18.4 21.807 18.0859 21.6357 17.9289C21.4787 17.7719 21.3074 17.7291 21.1218 17.7862C20.9362 17.8433 20.7221 17.986 20.4652 18.2287L20.2939 18.0574C20.6365 17.7433 20.9505 17.4293 21.2788 17.1153Z" fill="#292F36"/>
<path id="Vector_21" d="M29.9148 11.3626C29.8292 11.4625 29.7863 11.591 29.8149 11.7337C29.8434 11.8765 29.9148 12.0763 30.0576 12.3333L32.8125 17.4436C32.9553 17.7005 33.0695 17.8718 33.1837 17.9717C33.2836 18.0716 33.4121 18.1002 33.5405 18.0859C33.669 18.0716 33.8689 17.986 34.1115 17.8575L34.8681 17.4436C35.2963 17.2152 35.5961 16.9725 35.7531 16.7298C35.9101 16.4872 35.9672 16.2159 35.9244 15.8876C35.8816 15.5593 35.7531 15.1454 35.5247 14.6029L35.7674 14.4745C35.8673 14.7028 36.01 14.9883 36.1956 15.3309C36.4097 15.7163 36.6667 16.1446 36.9807 16.6156C36.5097 16.844 35.7103 17.258 34.6111 17.8575C33.2979 18.5712 32.2987 19.1137 31.642 19.4991L31.5278 19.2992C31.7705 19.1565 31.9418 19.028 32.0274 18.9281C32.1131 18.8282 32.1559 18.6997 32.1274 18.557C32.0988 18.4142 32.0274 18.2144 31.8847 17.9574L29.1012 12.8472C28.9584 12.5902 28.8442 12.4189 28.73 12.319C28.6301 12.2191 28.5016 12.1905 28.3732 12.2048C28.2304 12.2191 28.0449 12.2905 27.7879 12.4189L27.688 12.2048C27.9878 12.0763 28.4303 11.8479 29.0155 11.5196C29.5722 11.2199 30.0005 10.9772 30.3002 10.7916L30.4144 10.9915C30.1718 11.1342 30.0147 11.2627 29.9148 11.3626Z" fill="#292F36"/>
<path id="Vector_22" d="M47.3012 12.2761C47.3868 12.7043 47.5153 13.1897 47.6723 13.7321C47.1442 13.8178 46.2734 13.9748 45.0458 14.2174C43.5755 14.5029 42.4764 14.7313 41.7198 14.9026L41.677 14.6742C41.9482 14.6029 42.1481 14.5458 42.2623 14.4601C42.3765 14.3887 42.4478 14.2745 42.4621 14.1461C42.4764 14.0033 42.4621 13.7892 42.405 13.5037L41.2916 7.80817C41.2345 7.52268 41.1774 7.32284 41.0918 7.19437C41.0061 7.0659 40.9205 6.99452 40.7777 6.98025C40.6493 6.9517 40.4351 6.96597 40.1639 7.0088L40.1211 6.78041C40.8776 6.65194 41.9911 6.45209 43.4471 6.1666C44.5747 5.93821 45.3741 5.78119 45.8309 5.66699C45.8737 6.18088 45.9451 6.63766 46.0165 7.03735C46.0736 7.33711 46.1307 7.56551 46.1878 7.7368L45.9308 7.7939C45.7738 7.30856 45.6311 6.9517 45.5026 6.72331C45.3741 6.49492 45.1886 6.35217 44.9744 6.2808C44.746 6.20942 44.4463 6.20942 44.0323 6.29507L43.0759 6.48064C42.8047 6.53774 42.6049 6.59484 42.4907 6.66621C42.3765 6.73758 42.3051 6.8375 42.2765 6.98025C42.2623 7.12299 42.2765 7.33711 42.3336 7.6226L42.8618 10.3348L43.6184 10.1777C44.0038 10.1064 44.2322 9.93508 44.3178 9.67814C44.4035 9.4212 44.432 9.17853 44.4177 8.93586C44.4035 8.69319 44.3892 8.53617 44.3892 8.4648L44.6461 8.4077C44.6889 8.79312 44.746 9.14998 44.8174 9.49257L44.9316 10.035C45.003 10.4204 45.1315 10.9628 45.317 11.648L45.0601 11.7051C45.0458 11.648 44.9887 11.4767 44.8888 11.1627C44.7889 10.8486 44.6461 10.6345 44.432 10.5061C44.2179 10.3776 43.9752 10.349 43.6612 10.4061L42.9046 10.5489L43.4471 13.3039C43.5042 13.5894 43.5613 13.7892 43.6326 13.9177C43.704 14.0319 43.8039 14.1032 43.9467 14.1318C44.0751 14.1461 44.2893 14.1318 44.5605 14.0747L45.4027 13.9034C45.8737 13.8035 46.2306 13.675 46.459 13.5037C46.6874 13.3324 46.8159 13.0898 46.873 12.79C46.93 12.4902 46.93 12.062 46.8872 11.5053L47.1442 11.4482C47.187 11.6623 47.2298 11.9335 47.3012 12.2761Z" fill="#292F36"/>
</g>
<g id="Group_3">
<path id="Vector_23" d="M52.012 83.5488C34.1545 83.5488 19.623 69.0174 19.623 51.1599C19.623 33.3025 34.1545 18.771 52.012 18.771C69.8694 18.771 84.4009 33.3025 84.4009 51.1599C84.4009 69.0174 69.8694 83.5488 52.012 83.5488ZM52.012 20.1984C34.9396 20.1984 21.0505 34.0876 21.0505 51.1599C21.0505 68.2323 34.9396 82.1214 52.012 82.1214C69.0843 82.1214 82.9734 68.2323 82.9734 51.1599C82.9734 34.0876 69.0843 20.1984 52.012 20.1984Z" fill="#292F36"/>
<g id="Group 1000006965">
<path id="Vector 1" d="M36.4783 36.9115L40.7481 45.8069C43.8239 44.1099 49.7071 40.3832 51.1206 37.782C51.3543 36.9027 51.4634 36.5441 51.4225 36.9115C51.3924 37.1825 51.2878 37.4743 51.1206 37.782C49.3176 44.5664 40.0949 82.3515 35.055 56.8372L39.6806 63.2419C41.6969 59.3279 46.0141 50.5748 47.1528 46.8744C48.2914 43.1739 47.6272 43.1976 47.1528 43.672L40.7481 48.2976L35.055 36.9115C34.9364 36.4371 35.055 35.7729 36.4783 36.9115Z" fill="#292F36"/>
<path id="Vector 2" d="M64.7938 39.1584C59.2808 27.9716 52.8708 51.1906 50.355 64.1984L52.9802 65.174C53.5272 54.2257 56.1305 33.6951 62.1686 39.1584C68.2066 44.6217 67.966 56.6105 67.0909 61.922L54.621 52.4914L69.0598 66.7999C69.9349 62.2472 70.3068 50.3451 64.7938 39.1584Z" fill="#292F36"/>
</g>
</g>
</g>
</svg>
