<svg width="116" height="81" viewBox="0 0 116 81" fill="none" xmlns="http://www.w3.org/2000/svg">
<path id="Vector" fill-rule="evenodd" clip-rule="evenodd" d="M44.1524 4.45972C39.1386 6.76454 34.8402 8.81033 34.6003 9.00608C34.2606 9.28318 34.1645 9.68147 34.1652 27.8196L34.1659 51.0961L34.8896 50.8684C35.2875 50.7432 36.8246 50.0548 38.3049 49.3386C39.7855 48.6227 42.0143 47.5807 43.2583 47.0233C44.5019 46.466 47.4207 45.1389 49.7446 44.0742L53.9694 42.1387L54.0648 35.6428L54.1602 29.147H44.5107C39.2035 29.147 34.8629 29.0298 34.865 28.8863C34.8671 28.7427 39.1663 26.6597 44.4192 24.2572L53.9694 19.8888L54.0616 7.65514C54.1346 -2.02027 54.0613 0.243334 53.711 0.25446C53.4674 0.262457 49.1661 2.15457 44.1524 4.45972ZM78.4932 26C76.5543 26.9019 74.1088 28.0204 73.0587 28.4856C72.0087 28.9505 69.2168 30.2334 66.8543 31.3363L62.5594 33.3417V40.0818C62.5594 46.1148 62.6162 51.0513 62.6856 51.0513C62.755 51.0513 64.2146 50.4167 65.9287 49.641C67.6432 48.8653 69.519 48.017 70.0975 47.7555C71.8901 46.9461 77.6955 44.2533 80.1162 43.1087L82.4218 42.0184L82.5006 35.2926C82.5438 29.2672 82.4533 24.3422 82.2987 24.3485C82.1444 24.3547 80.4321 25.0978 78.4932 26ZM0.852051 72.6307V80.3031L1.81623 80.1929L2.7804 80.083L2.88068 76.6931L2.98096 73.3032H4.19546C5.25711 73.3032 5.40998 73.1936 5.40998 72.4339C5.40998 71.6725 5.25816 71.5647 4.18284 71.5647H2.95571V69.1309V66.6971H4.35815C5.62034 66.6971 5.76059 66.6102 5.76059 65.8279C5.76059 64.9834 5.69047 64.9587 3.30632 64.9587H0.852051V72.6307ZM13.8246 71.9124C13.8246 78.4027 13.8712 78.9124 14.5258 79.5615C15.0549 80.0862 15.6944 80.2569 17.1305 80.2569C20.3845 80.2569 20.5661 79.7475 20.4143 71.0432L20.3109 65.1325H19.4344H18.5578L18.3825 71.7386C18.2079 78.3126 18.2034 78.3453 17.3991 78.4583C15.6993 78.6972 15.5777 78.2222 15.5777 71.3485V64.9587H14.7011H13.8246V71.9124ZM28.9008 72.5685V80.2569H29.7774C30.6437 80.2569 30.6539 80.2228 30.6539 77.2908C30.6539 74.938 30.7657 74.2819 31.1949 74.1185C31.9455 73.8327 32.0353 73.9829 32.6054 76.4838C32.882 77.6986 33.1905 79.0441 33.2905 79.4746C33.4188 80.0271 33.7273 80.2569 34.3419 80.2569C35.371 80.2569 35.3587 80.4589 34.5463 76.8972C33.9493 74.2791 33.9429 74.0149 34.4678 73.4947C34.912 73.0542 35.0365 72.2128 35.0365 69.6525C35.0365 65.5136 34.7956 65.2104 31.354 65.0178L28.9008 64.8801V72.5685ZM43.2758 72.6078V80.2569H44.3277H45.3795L45.4135 75.4762L45.4479 70.6955L46.4506 73.6508C47.0277 75.3517 47.4597 77.3808 47.4681 78.4315C47.4828 80.2245 47.5017 80.2569 48.535 80.2569H49.5868V72.5848V64.9124L48.6226 65.0227C47.6606 65.1322 47.6581 65.1395 47.4831 68.4355L47.3078 71.7386L46.2946 68.3486C45.3192 65.0849 45.2441 64.9587 44.2786 64.9587H43.2758V72.6078ZM58.0014 72.6078V80.3031L58.9656 80.1929L59.9298 80.083V72.6078V65.1325L58.9656 65.0227L58.0014 64.9124V72.6078ZM67.8185 65.8279C67.8185 66.5233 67.9938 66.6971 68.695 66.6971H69.5716V73.477V80.2569H70.6234H71.6752V73.477V66.6971H72.5517C73.253 66.6971 73.4283 66.5233 73.4283 65.8279C73.4283 64.9733 73.3816 64.9587 70.6234 64.9587C67.8651 64.9587 67.8185 64.9733 67.8185 65.8279ZM81.284 65.4406C81.1813 65.7055 81.1469 68.8187 81.2073 72.3585C81.338 80.027 81.4348 80.2569 84.5268 80.2569C85.9335 80.2569 86.5758 80.0834 87.1021 79.5615C87.7566 78.9124 87.8033 78.4027 87.8033 71.8895V64.9124L86.8941 65.0227L85.985 65.1325L86.0201 71.3909C86.0394 74.833 85.9184 77.8575 85.7515 78.1116C85.5801 78.3735 85.0079 78.5244 84.4343 78.4593L83.4206 78.3446L83.3253 71.6516L83.2303 64.9587H82.3502C81.8664 64.9587 81.3864 65.1753 81.284 65.4406ZM96.4809 65.1579C96.3361 65.3032 96.2179 68.7599 96.2179 72.8397V80.2569H97.2697H98.3216V77.1023C98.3216 74.2854 98.3871 73.9599 98.9351 74.0635C99.3597 74.1439 99.6847 74.7673 99.9908 76.0881C100.879 79.9217 100.947 80.0792 101.752 80.1943C102.715 80.332 102.739 79.8914 101.945 76.5276C101.391 74.1765 101.39 73.9742 101.941 73.3713C102.399 72.8689 102.529 72.0386 102.529 69.6045C102.529 65.5146 102.297 65.2007 99.1487 65.0265C97.8261 64.9535 96.6257 65.0126 96.4809 65.1579ZM110.944 72.6078V80.2569H113.398C115.782 80.2569 115.852 80.2322 115.852 79.3877C115.852 78.5894 115.723 78.5184 114.274 78.5184H112.697V75.9108V73.3032H114.099C115.361 73.3032 115.501 73.2162 115.501 72.4339C115.501 71.6499 115.362 71.5647 114.083 71.5647H112.665L112.768 69.2178L112.872 66.871L114.362 66.7642C115.679 66.6696 115.852 66.5584 115.852 65.8081C115.852 64.9882 115.767 64.9587 113.398 64.9587H110.944V72.6078ZM30.8008 67.1661C30.7012 67.4241 30.6665 68.7113 30.7243 70.0262C30.8355 72.5605 30.7945 72.5149 32.7575 72.2987C32.956 72.2768 33.1081 71.1468 33.1081 69.6931C33.1081 67.3247 33.0471 67.1098 32.3193 66.9162C31.1812 66.6137 31.0034 66.6432 30.8008 67.1661ZM98.3216 69.4786C98.3216 71.0084 98.3875 72.2601 98.4681 72.2601C98.5488 72.2601 98.844 72.3474 99.1241 72.4541C100.077 72.8164 100.776 71.6308 100.776 69.6525C100.776 67.6533 100.2 66.6971 98.9979 66.6971C98.3864 66.6971 98.3216 66.9631 98.3216 69.4786Z" fill="#292F36"/>
</svg>
