<svg width="113" height="71" viewBox="0 0 113 71" fill="none" xmlns="http://www.w3.org/2000/svg">
<g id="Vector">
<path fill-rule="evenodd" clip-rule="evenodd" d="M25.1934 1.67676C28.4238 5.38125 29.8044 8.29083 31.1824 14.298C33.508 24.4349 36.9726 30.6033 41.654 32.9406C44.3078 34.2655 46.6995 34.6475 54.7752 35.0358C59.7395 35.2743 61.3251 35.7458 63.0558 37.4975C64.6107 39.0712 65.5603 41.4142 66.6861 46.4542C66.823 47.0671 67.5351 47.3741 68.0416 47.0382C68.5622 46.6929 68.6756 45.6222 68.5718 42.0257C68.5 39.5399 68.4276 38.938 68.0444 37.6409C67.419 35.5234 66.6018 34.0481 65.3185 32.7197C62.4146 29.7131 60.0585 28.8937 51.7092 27.9871C44.3792 27.191 42.8471 26.3912 40.2759 22.0185C38.7533 19.4291 37.3597 16.5777 36.1439 13.5643C34.3794 9.19074 32.9667 6.83353 30.7545 4.57158C29.2316 3.0143 27.1689 1.5887 25.213 0.741456L23.8707 0.159912L25.1934 1.67676ZM45.1043 1.66552C43.54 1.98121 42.1647 3.20469 41.6659 4.72489C41.3329 5.73954 41.4118 7.52477 41.8281 8.39449C42.2564 9.28954 43.1893 10.193 44.155 10.6481L44.9971 11.0449L52.2254 11.0466C59.2861 11.0483 59.4639 11.0563 59.8905 11.396L60.3272 11.7435L60.3297 16.9733C60.3325 22.9189 60.4127 23.5162 61.5123 25.7713C62.6194 28.0416 64.9708 30.3051 67.2029 31.2489C67.5453 31.3939 67.8351 31.5123 67.8467 31.5123C67.8583 31.5123 67.8481 27.0944 67.8239 21.6948L67.7798 11.8771L68.1893 11.4626L68.5986 11.0483H77.2745H85.9503L86.8098 10.6148C90.3926 8.8078 90.3372 3.84259 86.7139 2.04176L85.7669 1.57109L65.7963 1.54559C54.8125 1.5315 45.5011 1.58551 45.1043 1.66552ZM36.8285 29.6995C36.5933 29.9376 37.5026 34.5495 37.5816 38.2251C37.639 40.8967 37.5962 43.3249 37.4621 45.0085C37.2674 47.4539 37.273 47.6528 37.5462 47.9585C38.2779 48.7767 39.0072 48.1002 40.4115 45.301C41.5885 42.9547 42.4152 40.7607 42.9952 38.443C43.5057 36.4032 42.6083 31.6352 42.2026 31.5123C41.2648 31.228 39.1507 30.3109 38.4967 29.9048C37.6271 29.3646 37.21 29.3132 36.8285 29.6995ZM17.2741 58.5191C15.5101 58.8943 13.7283 60.4469 13.0949 62.1605C12.7372 63.1278 12.6255 64.8507 12.8576 65.823C13.2373 67.4144 14.5437 68.9475 16.1599 69.6981C16.997 70.0868 17.3772 70.1599 18.563 70.1599C19.7486 70.1599 20.1292 70.0868 20.9661 69.6983C22.2615 69.0969 23.3922 67.9587 23.9728 66.6718C24.3631 65.8069 24.4329 65.4374 24.4198 64.305C24.3812 60.9556 22.2958 58.6984 19.0078 58.4466C18.4442 58.4035 17.6639 58.436 17.2741 58.5191ZM0.930573 58.6564C0.884168 58.7326 0.860968 61.318 0.879364 64.4015L0.912674 70.0081L1.86563 70.0289L2.81858 70.0495V67.6386V65.2276H5.54866H8.27858L8.32465 67.6178L8.37056 70.0081H9.28208H10.1936L10.2372 64.2631L10.2808 58.5181H9.28424H8.2877V60.9503V63.3825H5.55314H2.81858V60.9503V58.5181H1.91684C1.4208 58.5181 0.977143 58.5803 0.930573 58.6564ZM26.925 58.7291C26.8809 58.845 26.8646 61.4303 26.8887 64.4741L26.9324 70.0081L27.8824 70.0583L28.8324 70.1086L28.8768 66.0326L28.9212 61.9567L30.6773 64.6009L32.4332 67.2451L34.1402 64.6428C35.0789 63.2115 35.8922 62.0406 35.9473 62.0406C36.0025 62.0404 36.0476 63.8332 36.0476 66.0243V70.0081L37.0006 70.0334L37.9535 70.0589V64.2884V58.5181H36.9712C35.8138 58.5181 35.9984 58.3284 33.976 61.5944C33.2012 62.8455 32.5225 63.8729 32.4678 63.8775C32.4131 63.882 31.6049 62.678 30.6716 61.2019L28.9749 58.5181H27.99C27.3516 58.5181 26.9767 58.5924 26.925 58.7291ZM40.9367 59.4406V60.3632H45.0799H49.2232V59.4406V58.5181H45.0799H40.9367V59.4406ZM55.7998 58.6273C55.7376 58.6902 55.6867 59.1065 55.6867 59.5525V60.3632H57.5073H59.3277L59.3717 65.1856L59.4157 70.0081L60.3272 70.0098L61.2387 70.0115L61.3216 65.2293L61.4044 60.447L63.1945 60.3994L64.9846 60.3516L64.9347 59.4769L64.8848 58.6019L60.3988 58.5573C57.9316 58.5328 55.8621 58.5644 55.7998 58.6273ZM67.0386 58.711C66.9909 58.8369 66.9715 61.4303 66.9955 64.4741L67.0393 70.0081L67.9922 70.0289L68.9452 70.0495V68.058V66.0663L70.2296 66.0689L71.514 66.0715L72.9062 68.0674L74.2983 70.0631L75.4336 70.0445C76.058 70.0343 76.5688 70.0058 76.5688 69.9813C76.5688 69.9566 75.8902 68.9852 75.0607 67.8225C74.2312 66.6597 73.5787 65.6946 73.6105 65.6776C73.6425 65.6607 74.0265 65.4646 74.464 65.2418C75.7586 64.5825 76.3517 63.3779 76.1853 61.7467C76.0546 60.4635 75.4965 59.6751 74.2985 59.0802C73.3638 58.616 73.2511 58.6011 70.2313 58.5424C67.7185 58.4936 67.1089 58.5256 67.0386 58.711ZM78.7233 59.4406V60.3632H82.8666H87.0099V59.4406V58.5181H82.8666H78.7233V59.4406ZM89.4958 64.3134V70.1087L90.4488 70.0584L91.4017 70.0081L91.4846 66.0086L91.5675 62.0089L94.6335 66.0086L97.6995 70.0081L98.4867 70.0593L99.2739 70.1104V64.3059V58.5013L98.35 58.5516L97.426 58.6019L97.4439 62.5018C97.4539 64.6469 97.4275 66.4017 97.3856 66.4017C97.3435 66.4017 95.9527 64.6279 94.2951 62.4599L91.2809 58.5181H90.3884H89.4958V64.3134ZM102.257 64.2889V70.0599L104.122 70.078C107.732 70.1133 109.506 69.6322 110.875 68.247C112.565 66.5368 112.928 63.6995 111.74 61.4838C110.977 60.0601 109.483 59.0442 107.648 58.7007C107.111 58.6002 105.678 58.5181 104.464 58.5181H102.257V64.2889ZM17.3838 60.4169C16.4425 60.7731 15.7849 61.326 15.2905 62.1773C14.902 62.8462 14.8341 63.1503 14.8341 64.2212C14.8341 65.1003 14.9247 65.6635 15.135 66.0914C16.7171 69.3086 21.111 69.0144 22.2189 65.6171C22.5465 64.6123 22.3508 63.0332 21.7837 62.1046C20.8663 60.6031 18.8928 59.8459 17.3838 60.4169ZM68.9452 62.2922V64.2212H70.7735C72.8803 64.2212 73.5981 64.0012 73.9891 63.2362C74.5379 62.162 74.1606 61.0685 73.0915 60.6356C72.6204 60.4449 71.8982 60.3632 70.6821 60.3632H68.9452V62.2922ZM104.246 64.305V68.2849L105.945 68.2148C107.804 68.1382 108.574 67.8601 109.418 66.9598C110.642 65.6551 110.685 63.2367 109.51 61.7935C108.692 60.7901 107.89 60.4754 105.945 60.3952L104.246 60.3251V64.305ZM40.9367 66.7283V70.074L45.1214 70.0411L49.3061 70.0081L49.3561 69.1275L49.4063 68.2469H46.1658H42.9254V66.6463V65.0457L45.7014 65.0691L48.4774 65.0924L48.5275 64.2374L48.5777 63.3825H44.7571H40.9367V66.7283ZM78.7233 66.7292V70.0759L82.908 70.042L87.0927 70.0081L87.1428 69.1275L87.193 68.2469H83.9525H80.7121V66.6463V65.0457L83.4881 65.0691L86.2641 65.0924L86.3141 64.2374L86.3643 63.3825H82.5437H78.7233V66.7292Z" fill="#292F36"/>
<path d="M78.7233 59.4406H80.9108V64.9094H78.7233L78.7233 59.4406Z" fill="#292F36"/>
<path d="M40.7379 59.577H42.9255L42.9254 65.0457H40.738L40.7379 59.577Z" fill="#292F36"/>
</g>
</svg>
