<svg width="132" height="44" viewBox="0 0 132 44" fill="none" xmlns="http://www.w3.org/2000/svg">
<g id="01">
<g id="Group">
<path id="Vector" d="M11.6337 0.419067V0.604638L10.8629 0.790206V9.01234L11.6337 9.19791V9.38348H7.97946V9.19791L8.7503 9.01234V2.00354L5.7241 9.51195H5.33866L1.41317 2.00354V8.8125L2.44093 9.19791V9.38348H0V9.19791L1.02777 8.8125V0.790206L0.256931 0.604638V0.419067H1.85567C2.09834 0.419067 2.31246 0.447616 2.48376 0.504714C2.65505 0.561812 2.82637 0.633184 2.95484 0.733106C3.09758 0.833028 3.21178 0.947227 3.3117 1.0757C3.41162 1.20417 3.49728 1.36119 3.58292 1.51821L6.38072 6.87116L8.5219 1.51821C8.59327 1.33264 8.66466 1.17562 8.76459 1.04715C8.85023 0.918677 8.9644 0.804481 9.09287 0.704559C9.22134 0.604637 9.37839 0.533263 9.56396 0.490439C9.74953 0.447615 9.9779 0.419067 10.2634 0.419067H11.6337Z" fill="#292F36"/>
<path id="Vector_2" d="M16.2015 2.80298C16.7297 2.80298 17.215 2.87435 17.629 3.03137C18.043 3.18839 18.3998 3.41678 18.6996 3.70227C18.9994 4.00204 19.2135 4.3589 19.3705 4.77286C19.5275 5.18682 19.5989 5.67216 19.5989 6.20032C19.5989 6.72847 19.5275 7.21381 19.3705 7.62777C19.2135 8.04173 18.9851 8.3986 18.6996 8.69836C18.3998 8.99813 18.043 9.21225 17.629 9.36927C17.215 9.52629 16.7297 9.59766 16.2015 9.59766C15.6734 9.59766 15.1881 9.52629 14.7741 9.36927C14.3601 9.21225 14.0033 8.98385 13.7035 8.69836C13.4037 8.3986 13.1896 8.04173 13.0326 7.62777C12.8756 7.21381 12.8042 6.72847 12.8042 6.20032C12.8042 5.67216 12.8756 5.18682 13.0326 4.77286C13.1896 4.3589 13.418 4.00204 13.7035 3.70227C14.0033 3.40251 14.3601 3.18839 14.7741 3.03137C15.1881 2.87435 15.6591 2.80298 16.2015 2.80298ZM16.2015 9.35499C16.3443 9.35499 16.487 9.31217 16.6441 9.21224C16.7868 9.11232 16.9153 8.9553 17.0294 8.71264C17.1436 8.46997 17.2436 8.15593 17.315 7.75624C17.3863 7.34228 17.4291 6.8284 17.4291 6.21459C17.4291 5.58651 17.3863 5.07263 17.315 4.67294C17.2436 4.27325 17.1436 3.94494 17.0294 3.71655C16.9153 3.48816 16.7868 3.31686 16.6441 3.21694C16.5013 3.11702 16.3586 3.0742 16.2015 3.0742C16.0588 3.0742 15.9161 3.11702 15.759 3.21694C15.6163 3.31686 15.4878 3.47388 15.3736 3.71655C15.2594 3.95922 15.1595 4.27325 15.0881 4.67294C15.0168 5.0869 14.9739 5.60079 14.9739 6.21459C14.9739 6.84267 15.0168 7.35655 15.0881 7.75624C15.1595 8.15593 15.2594 8.48424 15.3736 8.71264C15.4878 8.94103 15.6163 9.11232 15.759 9.21224C15.9018 9.29789 16.0445 9.35499 16.2015 9.35499Z" fill="#292F36"/>
<path id="Vector_3" d="M25.8369 0.419067C26.6078 0.419067 26.9932 0.804479 26.9932 1.5753V9.02661L27.764 9.21218V9.39775H26.6078C26.2937 9.39775 26.051 9.35493 25.8655 9.25501C25.6799 9.15508 25.5229 9.04089 25.423 8.92669C25.2945 8.78395 25.1946 8.61265 25.1375 8.44136C25.0233 8.66975 24.8805 8.85532 24.7092 9.02661C24.5665 9.16936 24.3666 9.29783 24.124 9.4263C23.8813 9.55477 23.5958 9.61187 23.2675 9.61187C22.8964 9.61187 22.5538 9.5405 22.2397 9.39775C21.9114 9.25501 21.6402 9.04089 21.4118 8.7554C21.1834 8.46991 20.9836 8.11304 20.8551 7.69908C20.7124 7.27084 20.6553 6.78551 20.6553 6.21453C20.6553 5.64355 20.7267 5.15821 20.8551 4.72998C20.9979 4.30174 21.1834 3.95915 21.4404 3.67366C21.683 3.38817 21.9828 3.17405 22.3254 3.03131C22.668 2.88856 23.0534 2.81719 23.4816 2.81719C23.71 2.81719 23.9099 2.84574 24.0954 2.88856C24.281 2.94566 24.438 3.00276 24.5665 3.07413C24.7235 3.1455 24.852 3.23115 24.9662 3.33107V0.83303L24.1954 0.64746V0.461892H25.8369V0.419067ZM24.9376 3.70221C24.8377 3.60229 24.7521 3.51664 24.6379 3.44527C24.538 3.3739 24.438 3.3168 24.3238 3.2597C24.2096 3.2026 24.0954 3.18833 23.967 3.18833C23.81 3.18833 23.6529 3.23115 23.5102 3.3168C23.3674 3.40245 23.2532 3.54519 23.139 3.75931C23.0391 3.97343 22.9535 4.28747 22.8964 4.67288C22.8393 5.07257 22.8107 5.57217 22.8107 6.20025C22.8107 6.81406 22.8393 7.29939 22.8964 7.68481C22.9535 8.07022 23.0249 8.36998 23.1248 8.5841C23.2104 8.79822 23.3104 8.95524 23.4388 9.02661C23.553 9.09799 23.6672 9.14081 23.7814 9.14081C23.9812 9.14081 24.1525 9.08371 24.2953 8.98379C24.438 8.88387 24.5522 8.7554 24.6521 8.62693C24.7663 8.4699 24.8663 8.29861 24.9519 8.11304V3.70221H24.9376Z" fill="#292F36"/>
<path id="Vector_4" d="M32.0605 9.61194C30.9614 9.61194 30.1049 9.31217 29.5054 8.71264C28.8916 8.11311 28.5918 7.27091 28.5918 6.2146C28.5918 5.68644 28.6632 5.20111 28.8202 4.78715C28.9772 4.37318 29.1913 4.01632 29.4626 3.71656C29.7338 3.41679 30.0621 3.20267 30.4618 3.04565C30.8472 2.88863 31.2754 2.81726 31.7465 2.81726C32.2318 2.81726 32.6601 2.88863 33.0312 3.0171C33.4166 3.15985 33.7306 3.34542 34.0019 3.57381C34.2731 3.8022 34.4729 4.07342 34.6157 4.38746C34.7584 4.7015 34.8298 5.02981 34.8298 5.38668C34.8298 5.50087 34.8298 5.61507 34.8155 5.70072C34.8012 5.78636 34.787 5.87201 34.7727 5.94338C34.7441 6.02903 34.7298 6.1004 34.7013 6.1575C34.3302 6.22887 33.9305 6.30025 33.5022 6.34307C33.1454 6.40017 32.7314 6.44299 32.2604 6.47154C31.7893 6.50009 31.304 6.52864 30.7901 6.52864C30.7901 7.0568 30.8329 7.49931 30.9043 7.85617C30.9756 8.21304 31.0898 8.49852 31.2183 8.69837C31.3611 8.91249 31.5181 9.05523 31.7036 9.14088C31.8892 9.22653 32.1034 9.26935 32.3175 9.26935C32.5744 9.26935 32.8171 9.22653 33.0454 9.12661C33.2738 9.02668 33.4737 8.91249 33.6307 8.75547C33.802 8.59845 33.9305 8.41288 34.0304 8.21304C34.1303 8.01319 34.1731 7.81335 34.1731 7.59923H34.4872C34.4872 7.85617 34.4301 8.09884 34.3159 8.3415C34.2017 8.58417 34.0304 8.79829 33.8163 8.98386C33.6022 9.16943 33.3452 9.31217 33.0454 9.42637C32.76 9.55484 32.4316 9.61194 32.0605 9.61194ZM30.7758 6.20032C31.0613 6.20032 31.3182 6.20033 31.5466 6.18605C31.775 6.17178 31.9606 6.1575 32.1176 6.14323C32.3032 6.12895 32.4459 6.1004 32.5744 6.08613C32.5887 6.00048 32.6172 5.90056 32.6315 5.80064C32.6458 5.70072 32.6601 5.60079 32.6743 5.4866C32.6886 5.3724 32.6886 5.24393 32.6886 5.11546C32.6886 4.73005 32.66 4.40173 32.6029 4.14479C32.5458 3.88785 32.4745 3.67373 32.3745 3.50244C32.2889 3.34542 32.189 3.21695 32.0605 3.15985C31.932 3.10275 31.8321 3.05993 31.7179 3.05993C31.6037 3.05993 31.4895 3.10275 31.3753 3.1884C31.2612 3.27405 31.1612 3.43107 31.0613 3.64518C30.9757 3.87358 30.89 4.18762 30.8329 4.60158C30.7758 5.01554 30.7758 5.5437 30.7758 6.20032Z" fill="#292F36"/>
<path id="Vector_5" d="M40.2255 3.24544C39.9686 3.24544 39.7402 3.30253 39.5403 3.40246C39.3405 3.50238 39.1692 3.63085 39.0264 3.75932C38.8694 3.91634 38.7409 4.08763 38.6125 4.2732V9.02662L39.3833 9.21219V9.39776H35.7861V9.21219L36.557 9.02662V3.37391L35.7861 3.18834V3.00277H36.9424C37.2421 3.00277 37.4848 3.05987 37.6846 3.15979C37.8702 3.25971 38.0272 3.37391 38.1414 3.4881C38.2699 3.63085 38.3698 3.78787 38.4269 3.95916C38.5554 3.77359 38.7124 3.6023 38.898 3.44528C39.055 3.31681 39.2549 3.20261 39.4975 3.08842C39.7402 2.97422 40.0114 2.9314 40.3397 2.9314C40.7965 2.9314 41.1391 3.04559 41.3675 3.24544C41.5959 3.45955 41.6958 3.75932 41.6958 4.14473C41.6958 4.43022 41.6101 4.67289 41.4388 4.84418C41.2675 5.01548 41.0249 5.10113 40.7394 5.10113C40.668 5.10113 40.6109 5.10113 40.5395 5.10113C40.4682 5.10113 40.4254 5.08685 40.3825 5.08685C40.3254 5.07258 40.2683 5.07258 40.2255 5.04403V3.24544Z" fill="#292F36"/>
<path id="Vector_6" d="M47.2201 4.9156C47.2201 4.63011 47.1915 4.37317 47.1344 4.15905C47.0773 3.94494 47.006 3.77364 46.9061 3.64517C46.8204 3.50242 46.7205 3.4025 46.592 3.3454C46.4778 3.2883 46.3636 3.24548 46.2494 3.24548C46.0496 3.24548 45.8783 3.30258 45.7355 3.4025C45.5928 3.50242 45.4643 3.63089 45.3787 3.75937C45.2645 3.91639 45.1788 4.08768 45.0932 4.27325V9.02667L45.864 9.21224V9.39781H42.2668V9.21224L43.0376 9.02667V3.37395L42.2668 3.18838V3.00281H43.4231C43.7228 3.00281 43.9655 3.05991 44.1653 3.15983C44.3509 3.25976 44.5079 3.37395 44.6221 3.48815C44.7506 3.63089 44.8505 3.78791 44.9076 3.95921C45.0218 3.74509 45.1646 3.54525 45.3359 3.37395C45.4786 3.23121 45.6784 3.10274 45.9068 2.97427C46.1352 2.8458 46.435 2.7887 46.7776 2.7887C47.1487 2.7887 47.4913 2.8458 47.7911 2.97427C48.1051 3.08846 48.362 3.25976 48.5762 3.44533C48.7903 3.64517 48.9616 3.85929 49.0901 4.11623C49.2185 4.37317 49.2756 4.63011 49.2756 4.90133V9.01239L50.0464 9.19796V9.38353H48.3763C47.6055 9.38353 47.2201 8.99812 47.2201 8.22729V4.9156Z" fill="#292F36"/>
<path id="Vector_7" d="M1.35596 18.4193V17.8911H11.2767V18.4193L9.19266 18.9474V29.7247H16.6725V18.9474L14.5884 18.4193V17.8911H24.5093V18.4193L22.4251 18.9474V41.2157L24.5093 41.7439V42.272H14.5884V41.7296L16.6725 41.2014V30.5955H9.19266V41.2014L11.2767 41.7296V42.2577H1.35596V41.7296L3.44003 41.2014V18.9332L1.35596 18.4193Z" fill="#292F36"/>
<path id="Vector_8" d="M36.8424 24.329C38.2842 24.329 39.5689 24.5431 40.7108 24.9571C41.8528 25.371 42.8092 25.9848 43.6085 26.7842C44.4079 27.5836 45.0217 28.5542 45.4357 29.6962C45.8496 30.8382 46.0638 32.1229 46.0638 33.5646C46.0638 35.0063 45.8496 36.291 45.4357 37.433C45.0217 38.575 44.4079 39.5314 43.6085 40.3307C42.8092 41.1301 41.8385 41.7439 40.7108 42.1579C39.5689 42.5718 38.2842 42.786 36.8424 42.786C35.4007 42.786 34.116 42.5718 32.974 42.1579C31.8321 41.7439 30.8757 41.1301 30.0763 40.3307C29.2769 39.5314 28.6631 38.5607 28.2492 37.433C27.8352 36.291 27.6211 35.0063 27.6211 33.5646C27.6211 32.1229 27.8352 30.8382 28.2492 29.6962C28.6631 28.5542 29.2769 27.5978 30.0763 26.7842C30.8757 25.9706 31.8464 25.371 32.974 24.9571C34.116 24.5431 35.4007 24.329 36.8424 24.329ZM36.8424 42.0722C37.2421 42.0722 37.6276 41.9438 38.0272 41.6868C38.4269 41.4299 38.7695 40.9874 39.0835 40.345C39.3976 39.7027 39.6545 38.8319 39.8544 37.7328C40.0542 36.6336 40.1541 35.2347 40.1541 33.5361C40.1541 31.8374 40.0542 30.4385 39.8544 29.3393C39.6545 28.2402 39.3976 27.3695 39.0835 26.7271C38.7695 26.0847 38.4127 25.6422 38.0272 25.3853C37.6418 25.1284 37.2421 24.9999 36.8424 24.9999C36.4427 24.9999 36.0574 25.1284 35.6577 25.3853C35.258 25.6422 34.9154 26.0847 34.6013 26.7271C34.2873 27.3695 34.0304 28.2402 33.8305 29.3393C33.6307 30.4385 33.5307 31.8374 33.5307 33.5361C33.5307 35.2347 33.6307 36.6336 33.8305 37.7328C34.0304 38.8319 34.2873 39.7027 34.6013 40.345C34.9154 40.9874 35.2723 41.4299 35.6577 41.6868C36.0574 41.9438 36.4427 42.0722 36.8424 42.0722Z" fill="#292F36"/>
<path id="Vector_9" d="M72.1436 30.0673C72.1436 29.2394 72.0722 28.5257 71.9295 27.969C71.7867 27.4123 71.6154 26.9412 71.387 26.5843C71.1587 26.2275 70.916 25.9705 70.659 25.7992C70.3878 25.6422 70.1309 25.5566 69.8739 25.5566C69.4314 25.5566 69.046 25.6993 68.7034 25.9848C68.3608 26.2703 68.0754 26.5986 67.8184 26.9412C67.5472 27.3552 67.2902 27.8262 67.0904 28.3258V41.2015L69.1888 41.7296V42.2578H59.4535V41.7296L61.5376 41.2015V30.0673C61.5376 29.2394 61.4662 28.5257 61.3235 27.969C61.1807 27.4123 61.0094 26.9412 60.781 26.5843C60.5526 26.2275 60.31 25.9705 60.0531 25.7992C59.7818 25.6422 59.5249 25.5566 59.2679 25.5566C58.8254 25.5566 58.44 25.6993 58.0975 25.9848C57.7549 26.2703 57.4693 26.5986 57.2124 26.9412C56.9269 27.3552 56.6843 27.8262 56.4844 28.3258V41.2015L58.5685 41.7296V42.2578H48.8333V41.7296L50.9174 41.2015V25.8992L48.8333 25.371V24.8428H51.9594C52.773 24.8428 53.4439 24.9856 53.9578 25.2568C54.486 25.528 54.8857 25.8421 55.1997 26.1561C55.5423 26.5558 55.7992 26.984 55.9705 27.4408C56.2703 26.8556 56.6414 26.3417 57.0839 25.8706C57.4836 25.4709 57.969 25.1141 58.54 24.7857C59.1252 24.4574 59.8247 24.3004 60.6669 24.3004C62.0515 24.3004 63.2648 24.6145 64.264 25.2283C65.2775 25.8421 66.0484 26.6414 66.5765 27.6121C66.8763 27.0126 67.2474 26.4701 67.6899 25.9705C68.0896 25.5566 68.5749 25.1712 69.1459 24.8286C69.7312 24.486 70.4306 24.3004 71.2728 24.3004C72.2292 24.3004 73.0857 24.4574 73.8851 24.7572C74.6702 25.057 75.3554 25.4709 75.9263 25.9991C76.4973 26.5272 76.9398 27.1268 77.2539 27.8262C77.5679 28.5257 77.7249 29.268 77.7249 30.0531V41.1872L79.809 41.7154V42.2435H75.284C73.1999 42.2435 72.1578 41.2015 72.1578 39.1174V30.0673H72.1436Z" fill="#292F36"/>
<path id="Vector_10" d="M91.2857 42.7717C88.3166 42.7717 86.0041 41.958 84.3626 40.3165C82.721 38.6749 81.8931 36.4338 81.8931 33.5503C81.8931 32.1086 82.1072 30.8239 82.5211 29.6819C82.9351 28.54 83.5204 27.5836 84.2626 26.7699C85.0049 25.9705 85.9042 25.3567 86.9606 24.9428C88.0169 24.5288 89.1731 24.3147 90.415 24.3147C91.7139 24.3147 92.8845 24.5003 93.9122 24.8714C94.94 25.2425 95.825 25.7421 96.5388 26.3702C97.2525 26.9983 97.8092 27.7406 98.1946 28.5828C98.58 29.425 98.7656 30.3243 98.7656 31.2807C98.7656 31.609 98.7513 31.8945 98.7085 32.1371C98.6656 32.3798 98.6371 32.5939 98.58 32.7795C98.5086 33.0079 98.4515 33.2077 98.4087 33.3648C97.3809 33.5789 96.3104 33.7502 95.1684 33.8929C94.1977 34.0357 93.07 34.1498 91.7996 34.264C90.5292 34.364 89.1874 34.4211 87.8027 34.4211C87.8027 35.8628 87.9027 37.0619 88.1168 38.0182C88.3309 38.9746 88.6164 39.7455 88.9875 40.3165C89.3587 40.8874 89.8012 41.2871 90.315 41.5298C90.8289 41.7724 91.3856 41.9009 91.9852 41.9009C92.6846 41.9009 93.3413 41.7725 93.9551 41.5155C94.5689 41.2586 95.097 40.916 95.5538 40.4877C96.0106 40.0595 96.3675 39.5742 96.6387 39.0317C96.9099 38.4893 97.0384 37.9326 97.0384 37.3759H97.9091C97.9091 38.0753 97.7521 38.7462 97.4381 39.3886C97.124 40.0452 96.6815 40.6162 96.0962 41.1158C95.511 41.6154 94.8258 42.0151 94.0122 42.3149C93.1843 42.6146 92.2707 42.7717 91.2857 42.7717ZM87.8027 33.5503C88.5878 33.5503 89.2873 33.536 89.8868 33.4932C90.4863 33.4504 91.0002 33.4218 91.4142 33.379C91.8995 33.3362 92.3135 33.2791 92.6704 33.2077C92.7132 32.9793 92.7703 32.7224 92.8417 32.4369C92.8845 32.18 92.9273 31.8945 92.9558 31.5804C92.9844 31.2664 93.0129 30.9381 93.0129 30.5955C93.0129 29.5534 92.9273 28.6827 92.7703 27.969C92.6132 27.2552 92.3991 26.6843 92.1565 26.2418C91.9138 25.7992 91.6283 25.4852 91.3286 25.2996C91.0145 25.1141 90.7004 25.0141 90.4007 25.0141C90.1009 25.0141 89.7869 25.1283 89.4728 25.3425C89.1588 25.5709 88.8876 25.9848 88.6449 26.5986C88.4023 27.2124 88.2024 28.0832 88.0311 29.1966C87.8884 30.31 87.8027 31.766 87.8027 33.5503Z" fill="#292F36"/>
</g>
<g id="Group_2">
<path id="Vector_11" d="M115.852 41.9009V27.7834L103.376 17.9054V41.9009H115.852Z" fill="#292F36"/>
<path id="Vector_12" d="M131.852 43.9009V29.7834L119.376 19.9054V43.9009H131.852Z" fill="#292F36"/>
</g>
</g>
</svg>
