<svg width="145" height="47" viewBox="0 0 145 47" fill="none" xmlns="http://www.w3.org/2000/svg">
<g id="04">
<g id="Group">
<path id="Vector" d="M20.4134 10.9574L21.484 10.729C21.7552 10.729 21.9836 10.7861 22.1406 10.9003C22.2976 11.0145 22.3833 11.1287 22.3833 11.2286C22.3833 11.3286 22.3547 11.4856 22.3119 11.6711C22.2691 11.8567 21.8694 13.7695 21.1271 17.381C20.3848 20.9924 19.8424 23.6903 19.4998 25.4603C21.1557 23.205 23.097 20.4357 25.3096 17.1383C27.5221 13.8409 28.8211 11.6569 29.1922 10.572C29.3064 10.2294 29.4634 9.97247 29.649 9.7869C29.8346 9.60133 30.0059 9.48714 30.1486 9.45859C30.2914 9.43004 30.5198 9.40149 30.8195 9.40149C31.1193 9.40149 31.4762 9.47286 31.8901 9.60133C32.3041 9.72981 32.5182 9.94392 32.5182 10.258C32.5182 10.8289 31.6617 12.4991 29.963 15.2398C28.2644 17.9805 26.3088 20.8925 24.1105 23.9758C21.9122 27.0591 20.0851 29.5 18.6148 31.2986C18.3579 31.6127 18.0295 31.784 17.6584 31.784C17.2873 31.784 16.8876 31.7126 16.4736 31.5841C16.0597 31.4556 15.8455 31.2273 15.8455 30.8847C15.8455 29.8141 16.7876 24.6467 18.6719 15.4111C17.0589 17.4952 15.1032 20.4072 12.805 24.1328C10.4069 27.9869 9.05086 30.3851 8.73682 31.2986C8.56553 31.8553 8.36568 32.1836 8.13729 32.2693C7.98027 32.3407 7.80897 32.3692 7.63767 32.3692L6.48144 32.4977C6.25305 32.4977 6.0532 32.4406 5.85336 32.3121C5.66779 32.1836 5.56787 32.0552 5.56787 31.9124C5.56787 31.527 6.11031 30.3565 7.1809 28.4152C8.25149 26.4738 9.52192 24.3612 10.9636 22.0773C12.4054 19.7934 13.9042 17.5808 15.4744 15.4253C17.0446 13.2699 18.2579 11.8139 19.1144 11.0859C19.2857 10.9289 19.4855 10.8575 19.7139 10.8575L20.4134 10.9574Z" fill="#292F36"/>
<path id="Vector_2" d="M37.5714 20.6357C38.3137 20.6357 38.6849 20.8926 38.6849 21.3922C38.6849 21.6635 38.6277 21.8633 38.4993 21.9918C38.3708 22.1202 38.0996 22.5342 37.6856 23.2622C37.2717 23.9759 36.8149 24.8895 36.3153 26.0172C35.8157 27.1306 35.4874 28.087 35.3446 28.8721C35.3161 28.972 35.3018 29.1005 35.3018 29.2861C35.3018 29.8285 35.4445 30.0854 35.7443 30.0854C36.0441 30.0854 36.3867 29.9427 36.7863 29.6715C37.186 29.386 37.5429 29.1005 37.8569 28.7722C38.171 28.4581 38.4707 28.1298 38.7705 27.8015C39.0703 27.4732 39.2416 27.2734 39.2987 27.2305C39.3558 27.1877 39.4414 27.1592 39.5556 27.1592C39.7412 27.1592 39.8554 27.3019 39.8982 27.5874C39.941 27.8729 39.9553 28.1584 39.9553 28.4724C39.9553 28.7865 39.9267 28.9863 39.8696 29.1005C39.5842 29.6572 38.9704 30.3281 37.9997 31.1132C37.0433 31.8983 36.1583 32.2837 35.3732 32.2837C34.5881 32.2837 34.0028 32.041 33.6459 31.57C33.2891 31.0989 33.0892 30.5565 33.0892 29.9855C33.0892 29.4003 33.1892 28.9007 33.389 28.4581C32.5754 29.5145 31.6475 30.3995 30.6055 31.1418C29.5491 31.8698 28.707 32.2409 28.0361 32.2409C27.3652 32.2409 26.837 32.041 26.4088 31.6414C25.8663 31.1418 25.6094 30.4566 25.6094 29.5716C25.6094 28.6865 25.8092 27.8015 26.2089 26.9022C26.6086 26.0172 27.1225 25.1893 27.7648 24.4613C28.4072 23.719 29.1209 23.0481 29.8917 22.4486C31.5048 21.1781 33.0036 20.55 34.3739 20.55C34.9021 20.55 35.3303 20.6357 35.6587 20.807C35.987 20.9783 36.2011 21.2067 36.2867 21.4636C36.5151 21.1068 36.715 20.8926 36.8863 20.7927C37.0147 20.6785 37.2574 20.6357 37.5714 20.6357ZM35.6301 22.263C33.96 22.263 32.2328 23.1908 30.4484 25.0465C29.8204 25.7174 29.2351 26.5025 28.6927 27.4304C28.1502 28.3582 27.8933 28.9863 27.8933 29.3289C27.8933 29.6715 27.9932 29.8428 28.1931 29.8428C28.4643 29.8428 29.2208 29.3003 30.477 28.2298C31.7332 27.1592 32.5611 26.3598 32.9608 25.8459C33.4176 25.2749 34.3026 24.0759 35.6301 22.263Z" fill="#292F36"/>
<path id="Vector_3" d="M48.6771 12.8987L49.2766 13.0414C49.3623 13.0414 49.4479 13.0843 49.505 13.1699C49.5764 13.2555 49.6049 13.3412 49.6049 13.4126C49.6049 13.4839 49.505 13.6981 49.2909 14.0406C49.0768 14.3832 48.8484 14.7686 48.5629 15.1969C48.2774 15.6251 48.1347 15.8678 48.1204 15.9106C48.8769 15.8535 49.4194 15.825 49.7334 15.825C50.0474 15.825 50.2616 15.8535 50.39 15.8963C50.5042 15.9392 50.647 16.0676 50.7897 16.2675C50.9467 16.4673 51.0752 16.6243 51.2037 16.7243C51.3322 16.8242 51.3893 16.9812 51.3893 17.181C51.3893 17.3809 51.2608 17.5665 51.0181 17.6949C50.7754 17.8377 50.5042 17.9233 50.2187 17.9519C47.9491 18.1803 46.7072 18.2945 46.4788 18.3087C45.6937 19.5221 44.5803 21.4063 43.1671 23.9614C41.7539 26.5166 40.9974 28.1296 40.9117 28.772C40.8689 29.0717 40.8546 29.3001 40.8546 29.4857C40.8546 29.8711 41.0545 30.0567 41.4542 30.0567C41.8539 30.0567 42.2964 29.8997 42.7817 29.5999C43.267 29.2859 43.7238 28.9575 44.1235 28.6007C45.2226 27.63 45.8079 27.1304 45.8793 27.1304C46.1362 27.1304 46.2647 27.5729 46.2647 28.4437C46.2647 28.9147 46.0506 29.3429 45.6081 29.7284C44.6231 30.5706 43.7952 31.2129 43.1243 31.6411C42.4534 32.0694 41.7825 32.2835 41.0973 32.2835C40.9546 32.2835 40.8118 32.2692 40.6834 32.2407C39.8983 32.0979 39.3273 31.8124 38.9704 31.3842C38.5993 30.956 38.428 30.385 38.428 29.6713C38.428 28.9575 38.6421 28.0725 39.0703 27.0447C39.4986 26.017 40.0267 24.9178 40.6691 23.7616C41.7254 21.8631 42.7817 20.093 43.8238 18.4372L43.267 18.5086C42.1394 18.637 41.4827 18.6941 41.2972 18.6941H41.1687C40.8832 18.6941 40.612 18.637 40.355 18.5228C40.0981 18.4087 39.9553 18.2659 39.9553 18.1089C39.9553 17.9376 40.0267 17.7806 40.1695 17.6236C40.3122 17.4665 40.3979 17.3381 40.4264 17.2524C40.4978 17.0383 40.7547 16.7956 41.1972 16.5387C41.6397 16.2817 41.9681 16.139 42.1965 16.1247C42.4248 16.1105 42.639 16.0962 42.8531 16.0819C43.0672 16.0676 43.2956 16.0676 43.5525 16.0534C43.8095 16.0391 44.0093 16.0391 44.1521 16.0248L45.4653 15.9677C46.279 14.7401 46.85 13.9407 47.1497 13.5981C47.4638 13.2413 47.635 13.0557 47.6779 13.0272C47.7207 12.9986 47.8206 12.9701 47.9776 12.9701L48.6771 12.8987Z" fill="#292F36"/>
<path id="Vector_4" d="M57.4557 27.1591C57.6413 27.1591 57.7555 27.3019 57.7983 27.5873C57.8411 27.8728 57.8554 28.1583 57.8554 28.4724C57.8554 28.7864 57.8269 28.9862 57.7698 29.1004C57.4843 29.6429 56.8705 30.3138 55.9141 31.0989C54.9577 31.884 54.0441 32.2837 53.1876 32.2837C52.6595 32.2837 52.1741 32.1266 51.7174 31.8126C51.2749 31.4986 51.0465 30.9419 51.0465 30.1568C51.0465 29.3717 51.2606 28.5866 51.6745 27.83C49.2479 30.8705 47.3636 32.3836 45.979 32.3836C45.4366 32.3836 44.9941 32.1838 44.6515 31.7983C44.3089 31.4129 44.1519 31.0132 44.1519 30.585C44.1519 30.171 44.2089 29.7428 44.3231 29.3003C44.4373 28.8578 44.5658 28.4581 44.6943 28.1012C44.8228 27.7444 45.0226 27.3161 45.2795 26.8023C45.5365 26.2884 45.7363 25.9172 45.8505 25.6746C45.9647 25.4319 46.1788 25.0893 46.4643 24.6182C46.7498 24.1472 47.1067 23.5048 47.5635 22.7055C48.0203 21.9061 48.3914 21.3066 48.6911 20.9211C48.9909 20.5357 49.2764 20.3359 49.5619 20.3359C49.8474 20.3359 50.0901 20.4501 50.3042 20.6785C50.5183 20.9069 50.6325 21.1067 50.6325 21.2495C50.6325 21.3922 50.3042 22.0488 49.6476 23.2193C47.7205 26.7166 46.7498 28.7436 46.7498 29.3288C46.7498 29.4716 46.8069 29.543 46.9068 29.543C47.3779 29.543 48.5484 28.5295 50.4041 26.5025C52.2598 24.4755 53.3446 23.1765 53.6444 22.6055C53.9442 22.0346 54.2154 21.5492 54.5009 21.1638C54.7721 20.7784 54.9862 20.5357 55.129 20.4501C55.5429 20.1789 56.0854 20.0361 56.7563 20.0076C56.8705 20.0076 56.9418 20.0076 56.9989 20.0218C57.056 20.0361 57.1274 20.1218 57.1988 20.2645C57.2702 20.4073 57.313 20.5357 57.313 20.6356C57.2273 20.9069 56.8419 21.6349 56.1425 22.8197C55.4573 24.0044 55.0719 24.6753 55.0005 24.8181C53.8443 27.2019 53.2733 28.7579 53.2733 29.4716C53.2733 29.8855 53.4303 30.0854 53.7443 30.0854C54.3153 30.014 55.0005 29.5572 55.7999 28.7293C56.0996 28.4295 56.3851 28.1155 56.6706 27.8015C56.9561 27.4874 57.1417 27.3019 57.1988 27.259C57.2702 27.1877 57.3558 27.1591 57.4557 27.1591Z" fill="#292F36"/>
<path id="Vector_5" d="M61.6954 23.7761C63.9936 21.1638 65.9635 19.8506 67.5765 19.8506C67.9762 19.8506 68.3045 19.9648 68.5614 20.2074C68.8184 20.4501 68.9468 20.7499 68.9468 21.1353C68.9468 21.5207 68.6756 22.1488 68.1332 23.0481C67.5908 23.9331 67.0911 24.6896 66.6344 25.3034C66.3917 25.6175 66.1205 25.7745 65.8064 25.7745C65.5067 25.7745 65.264 25.6603 65.0927 25.4319C64.9214 25.2035 64.8358 24.9466 64.8358 24.6468C64.8358 23.9759 65.1926 23.2051 65.9206 22.3629L65.8921 22.3343C65.5638 22.3629 64.7787 23.0052 63.494 24.2328C62.2235 25.4747 61.1387 26.5881 60.2394 27.5588C59.3543 28.5438 58.3837 29.7285 57.3274 31.1417C57.0276 31.5557 56.7707 31.7698 56.5565 31.7698C56.3424 31.7698 56.0712 31.6984 55.7286 31.57C55.386 31.4415 55.1719 31.3416 55.1005 31.2845C55.0292 31.2274 54.9863 31.1274 54.9863 30.9847C54.9863 30.8562 55.0292 30.6849 55.1005 30.5136C55.1719 30.3281 55.3289 30.0711 55.5288 29.7428C55.7286 29.4145 56.0569 28.8721 56.4852 28.1298C56.9134 27.3875 57.57 26.2598 58.4693 24.761C59.3686 23.2622 59.8968 22.3486 60.0823 22.0346C60.4535 21.3922 60.7533 20.9212 60.9959 20.6357C61.4384 20.079 62.1807 19.8077 63.2227 19.8077C63.4511 19.8077 63.5796 19.9505 63.5796 20.2503C63.5796 20.707 63.1514 21.5778 62.3092 22.8339L61.6954 23.7761Z" fill="#292F36"/>
<path id="Vector_6" d="M77.4403 20.8069C77.4403 21.4493 77.1833 22.0202 76.6552 22.5056C76.127 22.9909 75.5417 23.2336 74.8708 23.2336C74.6567 23.2336 74.514 23.1765 74.4426 23.0766C74.3712 22.9766 74.3427 22.8339 74.3427 22.6769C74.3427 22.5198 74.357 22.3485 74.3998 22.1915C74.0429 22.3057 73.6575 22.4913 73.2293 22.734C72.801 22.9766 72.2729 23.3335 71.6448 23.8188C71.0167 24.3042 70.7027 24.6468 70.7027 24.8894C70.7027 24.9608 70.8169 25.0036 71.0453 25.0036C71.2736 25.0036 71.6305 24.918 72.1016 24.7609C72.5726 24.6039 72.9152 24.5183 73.1008 24.5183C73.2864 24.5183 73.4148 24.5326 73.4719 24.5468C73.6004 24.6182 73.7289 24.7609 73.8859 24.9893C74.0286 25.2177 74.1 25.4033 74.1 25.5318C74.1 25.6602 73.9715 25.8315 73.7146 26.0457C73.4577 26.2598 73.1722 26.4168 72.8581 26.531C72.5298 26.6452 72.3157 26.7308 72.2158 26.7879C70.1602 27.9442 69.1325 28.7293 69.1325 29.1575C69.1325 29.9141 69.7748 30.2995 71.0738 30.2995C71.9017 30.2995 72.7439 30.0425 73.5718 29.5144C74.2856 29.0719 74.9279 28.6151 75.4989 28.144C76.0699 27.6872 76.4268 27.4017 76.5838 27.2875C76.7408 27.1733 76.855 27.1305 76.9264 27.1305C77.1833 27.1305 77.3118 27.416 77.3118 27.987C77.3118 28.558 77.2832 28.9291 77.2119 29.1004C77.1405 29.286 76.9549 29.5001 76.6266 29.7713C74.5425 31.47 72.5584 32.3264 70.7027 32.3264C69.7035 32.3264 68.9183 32.1837 68.3188 31.9125C67.2197 31.4129 66.6772 30.6563 66.6772 29.6286C66.6772 28.2868 67.6051 27.259 69.4751 26.5738C69.1039 26.4025 68.8613 26.2027 68.7613 25.9315C68.6471 25.6745 68.6043 25.2606 68.6043 24.6896C68.6043 24.1186 68.8755 23.5191 69.4037 22.8767C69.9318 22.2344 70.5885 21.7062 71.3593 21.3065C73.0722 20.3787 74.6139 19.9219 75.9557 19.9219C76.284 19.9219 76.5981 19.9932 76.9406 20.1503C77.2832 20.3073 77.4403 20.5214 77.4403 20.8069Z" fill="#292F36"/>
<path id="Vector_7" d="M86.2972 17.525H86.1117C86.0546 17.525 86.0118 17.525 85.9874 17.5351C85.963 17.5452 85.9487 17.5452 85.9101 17.5553C85.8816 17.5553 85.8572 17.5654 85.8084 17.5856C85.7353 17.6158 85.6337 17.6461 85.5178 17.6764C85.343 17.737 85.2153 17.8076 85.1345 17.8884C85.0538 17.9691 84.9964 18.1407 84.9623 18.4031C84.9283 18.6656 84.8776 19.3015 84.8045 20.331C84.6266 22.6929 84.3818 24.8933 84.0903 26.9121C83.5611 30.4246 83.3078 32.191 83.3161 32.2112C83.3245 32.2314 83.3186 32.2516 83.3127 32.2718C83.2866 32.3121 83.295 32.3323 83.3663 32.3323L83.5965 32.3021L83.9255 32.3727L84.1842 32.3424L84.3965 32.3727H84.4822L85.2151 32.4535C85.7004 32.4535 86.0642 32.3323 86.2964 32.1002C86.3973 31.9992 86.4756 31.8781 86.5313 31.7368C86.7362 31.2321 87.0357 29.4052 87.4644 26.2358C89.2327 26.2661 90.9969 26.2863 92.7526 26.2863L95.9031 26.2762C95.8316 26.8616 95.7176 27.6893 95.5369 28.7693C95.1264 31.1211 94.9733 32.3021 95.0815 32.3222C95.1898 32.3424 95.2696 32.3626 95.3552 32.3626C95.4409 32.3626 95.5425 32.3323 95.6703 32.2617C95.8022 32.2011 95.8854 32.1607 95.9139 32.1607C95.9425 32.1607 95.9752 32.1708 96.0306 32.2011C96.0717 32.2314 96.1758 32.2415 96.3328 32.2415L96.6855 32.2314L96.8745 32.1708C96.8888 32.1708 96.893 32.1809 96.887 32.2011C96.8811 32.2213 96.9139 32.2314 96.971 32.2314C97.3849 32.2314 97.7202 32.1103 97.9725 31.8579C98.134 31.6964 98.2704 31.4744 98.3859 31.2018C98.4872 30.9293 98.5658 30.6366 98.6074 30.3237C98.6491 30.0108 98.721 29.2538 98.7742 28.0728C98.8418 26.8919 98.8806 26.2963 98.8907 26.2863C99.0864 26.2762 99.3005 26.2762 99.5532 26.2661C100.053 26.2661 100.406 26.256 100.65 26.2257C101.277 26.155 101.986 25.832 102.761 25.2567C103.158 24.9741 103.382 24.7924 103.459 24.7016C103.64 24.5199 103.627 24.4189 103.399 24.4189L102.943 24.4896C102.733 24.4997 102.266 24.5098 101.493 24.5401C100.721 24.5703 100.183 24.5804 99.8542 24.5804L99.0465 24.5602C99.1791 23.1572 99.2608 21.5624 99.2672 19.786C99.805 20.5329 100.859 20.9064 102.429 20.9064C103.171 20.9064 103.935 20.7852 104.715 20.5329C105.51 20.2805 106.09 19.9576 106.474 19.574C106.857 19.1904 106.96 18.8876 106.778 18.6555C106.587 18.4334 106.312 18.3224 105.941 18.3224C105.57 18.3224 105.344 18.3628 105.263 18.4435C105.233 18.4738 105.26 18.5041 105.329 18.5344C105.389 18.5747 105.416 18.605 105.385 18.6353C105.274 18.7463 105.002 18.8473 104.579 18.928C104.155 19.0088 103.72 19.0592 103.291 19.0592C102.863 19.0592 102.44 18.9684 101.984 18.7968C101.527 18.6252 101.117 18.393 100.719 18.1205C100.16 17.737 99.7407 17.414 99.4506 17.1616C99.2476 17.0506 99.0126 17.0001 98.7271 17.0001C98.4416 17.0001 98.2358 17.0203 98.0569 17.0708C97.888 17.1112 97.7519 17.1616 97.6545 17.202C97.557 17.2424 97.4251 17.3029 97.2973 17.3736C97.1553 17.4442 97.0376 17.5048 96.936 17.5351C96.8385 17.5755 96.7553 17.6158 96.7048 17.6663C96.6544 17.7168 96.6265 17.7874 96.5869 17.8985C96.5573 17.9994 96.5045 18.4233 96.4386 19.1602C96.3726 19.897 96.3047 20.8357 96.2204 21.9763C96.1362 23.1169 96.0692 23.9546 96.0095 24.4997C93.3973 24.4997 90.6155 24.4694 87.6599 24.3987C88.0852 20.2906 88.2938 18.1407 88.2958 17.9388C88.2978 17.737 88.2435 17.6057 88.1328 17.5452C88.022 17.4846 87.8525 17.4543 87.6098 17.4543L86.2972 17.525Z" fill="#292F36"/>
<path id="Vector_8" d="M115.525 20.6071C115.824 20.6071 116.124 20.7355 116.424 21.0068C116.738 21.278 116.881 21.6777 116.881 22.2201C116.881 22.7625 116.695 23.462 116.31 24.3327C115.924 25.1892 115.411 26.0742 114.74 26.9735C114.083 27.8585 113.341 28.7007 112.556 29.4858C111.756 30.2709 110.9 30.9133 109.986 31.4129C109.058 31.9125 108.23 32.1694 107.474 32.1694C106.717 32.1694 106.118 31.9268 105.661 31.4557C105.204 30.9847 104.976 30.328 104.976 29.4858C104.976 28.6436 105.19 27.7015 105.604 26.688C106.018 25.6603 106.546 24.761 107.203 23.9759C107.859 23.1908 108.559 22.4913 109.33 21.8632C110.914 20.5785 112.313 19.9504 113.512 19.9504C114.054 19.9504 114.454 20.0789 114.725 20.3501C114.825 20.4358 114.868 20.5214 114.868 20.5785V20.6642C115.025 20.6071 115.239 20.6071 115.525 20.6071ZM114.054 22.5484H113.955C113.612 22.5484 113.441 22.3057 113.441 21.8061C112.727 22.0345 111.985 22.4485 111.2 23.0337C110.414 23.619 109.715 24.3185 109.101 25.1178C107.845 26.7166 107.217 28.0727 107.203 29.1718C107.203 29.7142 107.402 29.9854 107.802 29.9854C108.202 29.9854 108.801 29.7142 109.586 29.2003C110.372 28.6865 111.157 27.9299 111.942 26.945C112.713 25.9743 113.298 25.1178 113.683 24.4041C114.069 23.6904 114.269 23.205 114.269 22.9338C114.254 22.6769 114.183 22.5484 114.054 22.5484Z" fill="#292F36"/>
<path id="Vector_9" d="M116.567 31.841L115.853 31.8125H115.596C115.496 31.7839 115.396 31.7268 115.282 31.6412C115.168 31.5555 115.082 31.4842 115.025 31.4556C114.968 31.4271 114.939 31.3414 114.939 31.2415C114.939 31.1416 114.982 30.956 115.054 30.7133C116.952 26.5309 118.794 23.1764 120.578 20.6783C120.778 20.4071 121.092 20.193 121.52 20.0503C121.948 19.9075 122.376 19.8362 122.79 19.8362C123.033 19.8362 123.162 20.0217 123.162 20.4071C123.162 20.5213 123.119 20.6641 123.047 20.8354C122.976 21.0209 122.776 21.3064 122.462 21.7204C122.148 22.1344 121.777 22.6054 121.349 23.1193C120.92 23.6332 120.678 23.9472 120.621 24.0329C121.963 22.6482 123.162 21.6205 124.246 20.9353C125.331 20.2644 126.102 19.9218 126.587 19.9218C127.073 19.9218 127.444 20.0645 127.701 20.3358C127.958 20.607 128.086 20.9067 128.086 21.2208C128.086 21.5348 128.058 21.806 128.015 22.0059C127.972 22.22 127.886 22.4341 127.772 22.6625C127.658 22.8909 127.558 23.0907 127.472 23.2478C127.387 23.4048 127.244 23.6189 127.059 23.8758C126.859 24.1328 126.73 24.3184 126.659 24.4183C126.587 24.5182 126.43 24.7038 126.202 24.975C125.974 25.2462 125.845 25.4032 125.831 25.4318C126.102 25.1606 126.488 24.7609 126.973 24.2184C127.458 23.676 127.872 23.2335 128.215 22.8766C128.557 22.5198 128.971 22.1058 129.485 21.649C129.999 21.1922 130.47 20.8211 130.898 20.5499C131.955 19.8932 133.025 19.5507 134.11 19.5507C134.481 19.5507 134.795 19.6649 135.052 19.9075C135.309 20.1502 135.438 20.4214 135.438 20.7497C135.438 21.078 135.038 21.8631 134.253 23.0907C133.468 24.3184 132.668 25.5602 131.883 26.8021C131.098 28.044 130.699 28.8291 130.699 29.1574C130.699 29.5999 130.784 29.8711 130.941 29.9568C131.113 30.0424 131.312 30.071 131.541 30.0567C131.769 30.0424 132.112 29.8854 132.526 29.5999C132.954 29.3144 133.325 29.0289 133.653 28.7149C134.196 28.2296 134.681 27.7585 135.152 27.3017C135.252 27.2161 135.352 27.1733 135.481 27.1733C135.666 27.1733 135.78 27.316 135.823 27.6015C135.866 27.887 135.88 28.1725 135.88 28.4865C135.88 28.8006 135.852 29.0004 135.795 29.1146C135.509 29.657 134.881 30.3279 133.925 31.1273C132.954 31.9124 132.026 32.3121 131.141 32.3121C131.027 32.3121 130.955 32.3121 130.913 32.2978C129.913 32.1979 129.214 31.9267 128.829 31.4699C128.443 31.0131 128.258 30.4707 128.258 29.8569C128.258 29.2431 128.472 28.4722 128.9 27.5872C129.328 26.7022 129.785 25.8886 130.299 25.1748C130.813 24.4611 131.27 23.8045 131.698 23.2192C132.126 22.634 132.34 22.3199 132.34 22.2771C132.34 22.2343 132.297 22.2057 132.226 22.2057C131.926 22.2057 131.255 22.6911 130.199 23.676C128.415 25.3461 126.873 26.9591 125.574 28.5008C125.231 28.9148 124.418 29.9425 123.147 31.6126C123.005 31.8125 122.762 31.9124 122.448 31.9124C122.134 31.9124 121.806 31.8553 121.463 31.7268C121.12 31.5984 120.949 31.4413 120.949 31.2558C120.949 31.1559 121.72 29.7855 123.276 27.1447C124.832 24.5039 125.603 23.0622 125.603 22.8338C125.603 22.5911 125.46 22.4769 125.174 22.4769C124.889 22.4769 124.289 22.9052 123.39 23.7616C120.92 26.1169 119.008 28.4722 117.652 30.799C117.566 30.9417 117.395 31.1559 117.138 31.4413C116.881 31.7268 116.652 31.841 116.567 31.841Z" fill="#292F36"/>
<path id="Vector_10" d="M144.873 20.8069C144.873 21.4493 144.616 22.0202 144.088 22.5056C143.56 22.9909 142.975 23.2336 142.304 23.2336C142.09 23.2336 141.947 23.1765 141.875 23.0766C141.804 22.9766 141.776 22.8339 141.776 22.6769C141.776 22.5198 141.79 22.3485 141.833 22.1915C141.476 22.3057 141.09 22.4913 140.662 22.734C140.234 22.9766 139.706 23.3335 139.078 23.8188C138.45 24.3042 138.136 24.6468 138.136 24.8894C138.136 24.9608 138.25 25.0036 138.478 25.0036C138.707 25.0036 139.063 24.918 139.534 24.7609C140.005 24.6039 140.348 24.5183 140.534 24.5183C140.719 24.5183 140.848 24.5326 140.905 24.5468C141.033 24.6182 141.162 24.7609 141.319 24.9893C141.461 25.2177 141.533 25.4033 141.533 25.5318C141.533 25.6602 141.404 25.8315 141.147 26.0457C140.891 26.2598 140.605 26.4168 140.291 26.531C139.963 26.6452 139.749 26.7308 139.649 26.7879C137.593 27.9442 136.565 28.7293 136.565 29.1575C136.565 29.9141 137.208 30.2995 138.507 30.2995C139.335 30.2995 140.177 30.0425 141.005 29.5144C141.718 29.0719 142.361 28.6151 142.932 28.144C143.503 27.6872 143.86 27.4017 144.017 27.2875C144.174 27.1733 144.288 27.1305 144.359 27.1305C144.616 27.1305 144.745 27.416 144.745 27.987C144.745 28.558 144.716 28.9291 144.645 29.1004C144.573 29.286 144.388 29.5001 144.059 29.7713C141.975 31.47 139.991 32.3264 138.136 32.3264C137.136 32.3264 136.351 32.1837 135.752 31.9125C134.653 31.4129 134.11 30.6563 134.11 29.6286C134.11 28.2868 135.038 27.259 136.908 26.5738C136.537 26.4025 136.294 26.2027 136.194 25.9315C136.08 25.6745 136.037 25.2606 136.037 24.6896C136.037 24.1186 136.308 23.5191 136.837 22.8767C137.365 22.2344 138.021 21.7062 138.792 21.3065C140.505 20.3787 142.047 19.9219 143.389 19.9219C143.717 19.9219 144.031 19.9932 144.374 20.1503C144.716 20.3073 144.873 20.5214 144.873 20.8069Z" fill="#292F36"/>
</g>
<g id="Group_2">
<path id="Vector_11" d="M0.172119 35.7952C3.92632 37.3654 7.75189 38.5788 11.6488 39.5066C15.5172 40.4773 19.457 41.1625 23.3968 41.5907C25.3667 41.8619 27.3508 41.8905 29.3064 42.076C31.2906 42.0903 33.2605 42.2473 35.2304 42.1331L38.1852 42.0618C39.1702 42.0475 40.1551 41.919 41.14 41.8619C42.125 41.7763 43.1099 41.7334 44.0806 41.605L47.0069 41.191C50.9324 40.7628 54.7437 39.8492 58.5407 38.7501C62.3805 37.6937 66.0063 36.2948 69.8461 34.8388C73.7716 33.3971 78.0254 32.455 82.3363 32.9118C84.4632 33.183 86.6044 33.8682 88.3459 35.1243C90.1017 36.3662 91.3579 38.1363 92.1572 39.9919C90.9582 38.3361 89.4593 36.98 87.7321 36.1378C86.0049 35.2956 84.1064 34.953 82.2221 35.0101C78.4108 35.0672 74.6566 36.3377 71.1308 37.9364C67.5479 39.7065 63.6652 41.3052 59.754 42.6327C55.8142 43.9032 51.746 44.9167 47.6207 45.4305C39.4128 46.5154 31.0051 46.5297 22.8972 44.8881C18.8289 44.1458 14.8606 42.9896 11.0208 41.5193C7.20945 39.9919 3.48381 38.2076 0.172119 35.7952Z" fill="#292F36"/>
</g>
<g id="Group_3">
<path id="Vector_12" d="M58.755 10.0281C61.9382 8.67204 65.1785 7.61572 68.4617 6.7878C71.7305 5.91705 75.0422 5.30325 78.3682 4.87502C80.024 4.61807 81.7084 4.56098 83.3643 4.36113C85.0344 4.31831 86.6903 4.14701 88.3604 4.21839C89.1883 4.23266 90.0305 4.23266 90.8584 4.21839C91.6863 4.21839 92.5285 4.30403 93.3565 4.33258C94.1844 4.38968 95.0266 4.40396 95.8545 4.4896L98.3383 4.78937C101.664 5.06058 104.89 5.74576 108.116 6.58796C111.385 7.37306 114.483 8.48647 117.78 9.59989C121.163 10.7276 124.832 11.4128 128.515 10.8989C130.328 10.5991 132.155 9.95675 133.596 8.81479C135.067 7.6871 136.066 6.14545 136.68 4.53242C135.666 5.9456 134.41 7.10184 132.968 7.81557C131.527 8.5293 129.942 8.82906 128.358 8.81479C125.16 8.81479 121.991 7.78702 118.994 6.50231C115.939 5.04631 112.584 3.7616 109.244 2.70529C105.875 1.69179 102.364 0.920968 98.8522 0.549831C91.8434 -0.192445 84.6775 -0.0211512 77.8115 1.60615C74.3713 2.33415 71.0168 3.44756 67.8051 4.81792C64.579 6.21682 61.4671 7.84412 58.755 10.0281Z" fill="#292F36"/>
</g>
</g>
</svg>
